<?xml version="1.0" standalone="no"?>
<!DOCTYPE svg PUBLIC "-//W3C//DTD SVG 20010904//EN"
 "http://www.w3.org/TR/2001/REC-SVG-20010904/DTD/svg10.dtd">
<svg version="1.0" xmlns="http://www.w3.org/2000/svg"
 width="452.000000pt" height="307.000000pt" viewBox="0 0 452.000000 307.000000"
 preserveAspectRatio="xMidYMid meet">
<metadata>
Created by potrace 1.16, written by Peter Selinger 2001-2019
</metadata>
<g transform="translate(0.000000,307.000000) scale(0.100000,-0.100000)"
fill="#000000" stroke="none">
<path d="M18 3063 c9 -4 10 -8 2 -18 -8 -10 -2 -14 30 -17 48 -4 65 4 57 26
-8 20 -37 21 -37 1 0 -8 -7 -15 -15 -15 -9 0 -12 6 -9 15 5 11 0 15 -17 14
-13 0 -18 -3 -11 -6z"/>
<path d="M4343 3051 c2 -24 4 -25 80 -24 85 2 93 4 84 28 -8 20 -34 19 -40 -2
-4 -17 -5 -17 -6 0 -1 21 -21 23 -21 2 0 -8 -4 -15 -10 -15 -5 0 -10 7 -10 15
0 8 -4 15 -10 15 -5 0 -10 -7 -10 -15 0 -8 -4 -15 -10 -15 -5 0 -10 7 -10 15
0 21 -20 19 -21 -2 0 -16 -2 -15 -10 2 -8 18 -8 18 -6 -4z"/>
<path d="M143 3053 c16 -4 17 -26 17 -278 0 -252 -1 -274 -17 -278 -17 -4 -17
-5 0 -6 16 -1 17 -21 17 -271 0 -233 -2 -270 -15 -270 -8 0 -15 -4 -15 -10 0
-5 7 -10 15 -10 13 0 15 -37 15 -270 0 -233 -2 -270 -15 -270 -8 0 -15 -4 -15
-10 0 -5 7 -10 15 -10 13 0 15 -37 15 -269 0 -248 -1 -270 -17 -274 -17 -4
-17 -5 0 -6 16 -1 17 -21 17 -275 0 -253 -1 -275 -17 -279 -10 -3 -1 -5 20 -6
26 -1 37 -6 37 -16 0 -8 5 -15 10 -15 6 0 10 7 10 15 0 13 49 15 380 15 331 0
380 -2 380 -15 0 -8 5 -15 10 -15 6 0 10 7 10 15 0 13 49 15 379 15 353 0 380
-1 384 -18 4 -16 5 -16 6 0 1 16 19 18 196 20 l195 3 0 1303 c0 1035 2 1306
12 1316 28 30 48 57 48 65 0 5 6 11 13 14 6 2 9 8 5 12 -8 8 -38 -18 -38 -33
0 -6 -7 -13 -16 -16 -8 -3 -12 -10 -9 -16 3 -5 1 -10 -4 -10 -7 0 -11 30 -11
80 l0 80 -1017 -1 c-560 -1 -1010 -3 -1000 -6z m1993 -12 c-6 -10 -351 -202
-801 -446 -593 -322 -745 -431 -872 -627 -43 -67 -87 -157 -80 -165 3 -2 12
15 21 39 30 75 108 190 176 259 132 133 270 220 865 544 220 120 467 255 549
301 81 46 150 84 152 84 2 0 4 -592 4 -1316 0 -965 -3 -1320 -11 -1330 -8 -10
-8 -14 0 -14 7 0 11 -20 11 -50 0 -27 -4 -50 -10 -50 -5 0 -10 6 -11 13 0 10
-2 10 -6 0 -2 -7 -11 -13 -19 -13 -8 0 -14 6 -15 13 0 10 -2 10 -6 0 -4 -10
-204 -13 -954 -13 l-949 0 0 50 c0 38 4 50 15 50 11 0 15 -13 17 -47 1 -48 1
-48 5 -8 5 44 18 58 47 49 13 -4 16 -2 11 6 -4 7 -17 9 -31 6 -23 -6 -24 -4
-26 46 l-1 53 -6 -44 c-3 -25 -12 -46 -18 -49 -10 -3 -13 268 -13 1332 l0
1336 981 0 c578 0 978 -4 975 -9z"/>
<path d="M467 2899 c-7 -28 -6 -31 10 -14 6 6 8 18 3 24 -5 9 -9 5 -13 -10z"/>
<path d="M278 2713 c7 -3 16 -2 19 1 4 3 -2 6 -13 5 -11 0 -14 -3 -6 -6z"/>
<path d="M338 2713 c7 -3 16 -2 19 1 4 3 -2 6 -13 5 -11 0 -14 -3 -6 -6z"/>
<path d="M1930 2600 c0 -5 5 -10 11 -10 5 0 7 5 4 10 -3 6 -8 10 -11 10 -2 0
-4 -4 -4 -10z"/>
<path d="M1910 2569 c0 -5 5 -7 10 -4 6 3 10 8 10 11 0 2 -4 4 -10 4 -5 0 -10
-5 -10 -11z"/>
<path d="M361 1759 c-6 -18 -11 -37 -10 -43 0 -6 7 7 15 28 8 22 12 41 10 43
-2 2 -9 -10 -15 -28z"/>
<path d="M331 1654 c0 -11 3 -14 6 -6 3 7 2 16 -1 19 -3 4 -6 -2 -5 -13z"/>
<path d="M321 1614 c0 -11 3 -14 6 -6 3 7 2 16 -1 19 -3 4 -6 -2 -5 -13z"/>
<path d="M312 1570 c0 -14 2 -19 5 -12 2 6 2 18 0 25 -3 6 -5 1 -5 -13z"/>
<path d="M1120 1559 c0 -5 5 -7 10 -4 6 3 10 8 10 11 0 2 -4 4 -10 4 -5 0 -10
-5 -10 -11z"/>
<path d="M302 1520 c0 -14 2 -19 5 -12 2 6 2 18 0 25 -3 6 -5 1 -5 -13z"/>
<path d="M1080 1510 c0 -5 5 -10 11 -10 5 0 7 5 4 10 -3 6 -8 10 -11 10 -2 0
-4 -4 -4 -10z"/>
<path d="M292 1460 c0 -14 2 -19 5 -12 2 6 2 18 0 25 -3 6 -5 1 -5 -13z"/>
<path d="M282 1395 c0 -16 2 -22 5 -12 2 9 2 23 0 30 -3 6 -5 -1 -5 -18z"/>
<path d="M272 1320 c0 -19 2 -27 5 -17 2 9 2 25 0 35 -3 9 -5 1 -5 -18z"/>
<path d="M263 1235 c0 -22 2 -30 4 -17 2 12 2 30 0 40 -3 9 -5 -1 -4 -23z"/>
<path d="M830 1190 c0 -5 5 -10 11 -10 5 0 7 5 4 10 -3 6 -8 10 -11 10 -2 0
-4 -4 -4 -10z"/>
<path d="M253 1130 c0 -25 2 -35 4 -22 2 12 2 32 0 45 -2 12 -4 2 -4 -23z"/>
<path d="M810 1159 c0 -5 5 -7 10 -4 6 3 10 8 10 11 0 2 -4 4 -10 4 -5 0 -10
-5 -10 -11z"/>
<path d="M243 1005 c0 -27 2 -38 4 -22 2 15 2 37 0 50 -2 12 -4 0 -4 -28z"/>
<path d="M233 850 c0 -36 2 -50 4 -32 2 17 2 47 0 65 -2 17 -4 3 -4 -33z"/>
<path d="M223 650 c0 -41 2 -58 4 -37 2 20 2 54 0 75 -2 20 -4 3 -4 -38z"/>
<path d="M300 369 c-12 -9 -12 -10 4 -5 11 4 23 1 28 -6 6 -10 8 -8 8 5 0 19
-18 22 -40 6z"/>
<path d="M386 373 c5 -5 12 -12 16 -18 4 -6 8 -2 8 8 0 9 -7 17 -17 17 -9 0
-12 -3 -7 -7z"/>
<path d="M435 369 c-4 -6 -4 -13 -1 -16 3 -4 6 -1 6 5 0 6 8 13 18 15 15 4 15
5 0 6 -9 0 -20 -4 -23 -10z"/>
<path d="M518 373 c7 -3 16 -2 19 1 4 3 -2 6 -13 5 -11 0 -14 -3 -6 -6z"/>
<path d="M588 373 c7 -3 16 -2 19 1 4 3 -2 6 -13 5 -11 0 -14 -3 -6 -6z"/>
<path d="M658 373 c7 -3 16 -2 19 1 4 3 -2 6 -13 5 -11 0 -14 -3 -6 -6z"/>
<path d="M718 373 c7 -3 16 -2 19 1 4 3 -2 6 -13 5 -11 0 -14 -3 -6 -6z"/>
<path d="M788 373 c7 -3 16 -2 19 1 4 3 -2 6 -13 5 -11 0 -14 -3 -6 -6z"/>
<path d="M858 373 c7 -3 16 -2 19 1 4 3 -2 6 -13 5 -11 0 -14 -3 -6 -6z"/>
<path d="M928 373 c7 -3 16 -2 19 1 4 3 -2 6 -13 5 -11 0 -14 -3 -6 -6z"/>
<path d="M988 373 c7 -3 16 -2 19 1 4 3 -2 6 -13 5 -11 0 -14 -3 -6 -6z"/>
<path d="M1058 373 c7 -3 16 -2 19 1 4 3 -2 6 -13 5 -11 0 -14 -3 -6 -6z"/>
<path d="M1128 373 c7 -3 16 -2 19 1 4 3 -2 6 -13 5 -11 0 -14 -3 -6 -6z"/>
<path d="M1198 373 c7 -3 16 -2 19 1 4 3 -2 6 -13 5 -11 0 -14 -3 -6 -6z"/>
<path d="M1258 373 c7 -3 16 -2 19 1 4 3 -2 6 -13 5 -11 0 -14 -3 -6 -6z"/>
<path d="M1328 373 c7 -3 16 -2 19 1 4 3 -2 6 -13 5 -11 0 -14 -3 -6 -6z"/>
<path d="M1398 373 c7 -3 16 -2 19 1 4 3 -2 6 -13 5 -11 0 -14 -3 -6 -6z"/>
<path d="M1468 373 c7 -3 16 -2 19 1 4 3 -2 6 -13 5 -11 0 -14 -3 -6 -6z"/>
<path d="M1528 373 c7 -3 16 -2 19 1 4 3 -2 6 -13 5 -11 0 -14 -3 -6 -6z"/>
<path d="M1598 373 c7 -3 16 -2 19 1 4 3 -2 6 -13 5 -11 0 -14 -3 -6 -6z"/>
<path d="M1668 373 c7 -3 16 -2 19 1 4 3 -2 6 -13 5 -11 0 -14 -3 -6 -6z"/>
<path d="M1738 373 c7 -3 16 -2 19 1 4 3 -2 6 -13 5 -11 0 -14 -3 -6 -6z"/>
<path d="M1798 373 c7 -3 16 -2 19 1 4 3 -2 6 -13 5 -11 0 -14 -3 -6 -6z"/>
<path d="M1868 373 c7 -3 16 -2 19 1 4 3 -2 6 -13 5 -11 0 -14 -3 -6 -6z"/>
<path d="M1938 373 c7 -3 16 -2 19 1 4 3 -2 6 -13 5 -11 0 -14 -3 -6 -6z"/>
<path d="M2008 373 c7 -3 16 -2 19 1 4 3 -2 6 -13 5 -11 0 -14 -3 -6 -6z"/>
<path d="M2068 373 c7 -3 16 -2 19 1 4 3 -2 6 -13 5 -11 0 -14 -3 -6 -6z"/>
<path d="M530 349 c0 -5 5 -7 10 -4 6 3 10 8 10 11 0 2 -4 4 -10 4 -5 0 -10
-5 -10 -11z"/>
<path d="M765 340 c3 -5 8 -10 11 -10 2 0 4 5 4 10 0 6 -5 10 -11 10 -5 0 -7
-4 -4 -10z"/>
<path d="M1305 320 c-3 -5 -1 -10 4 -10 6 0 11 5 11 10 0 6 -2 10 -4 10 -3 0
-8 -4 -11 -10z"/>
<path d="M1475 310 c-3 -5 -1 -10 4 -10 6 0 11 5 11 10 0 6 -2 10 -4 10 -3 0
-8 -4 -11 -10z"/>
<path d="M2273 3045 c-7 -8 -13 -18 -13 -24 0 -5 -6 -11 -12 -14 -10 -4 -10
-7 0 -18 10 -11 12 -10 12 4 0 9 5 17 10 17 7 0 10 -470 10 -1390 0 -920 3
-1390 10 -1390 6 0 10 7 10 15 0 13 46 15 355 15 309 0 355 -2 355 -15 0 -8 5
-15 10 -15 6 0 10 7 10 15 0 13 47 15 359 15 334 0 360 -1 364 -17 4 -17 5
-17 6 0 1 16 22 17 279 18 152 1 269 3 260 6 -17 4 -18 24 -18 229 0 192 2
224 15 224 8 0 15 5 15 10 0 6 -7 10 -15 10 -13 0 -15 32 -15 224 0 205 1 225
18 229 16 4 16 5 0 6 -17 1 -18 19 -18 226 0 193 2 225 15 225 8 0 15 5 15 10
0 6 -7 10 -15 10 -13 0 -15 32 -15 224 0 205 1 225 18 229 16 4 16 5 0 6 -17
1 -18 19 -18 226 0 193 2 225 15 225 8 0 15 5 15 10 0 6 -7 10 -15 10 -13 0
-15 32 -15 224 0 205 1 225 18 229 9 3 -440 5 -998 5 -865 1 -1017 -1 -1027
-13z m1987 -66 l0 -70 -303 -422 c-167 -232 -364 -508 -440 -613 -75 -106
-143 -194 -152 -197 -8 -4 -15 -14 -15 -23 0 -9 -91 -145 -203 -303 -112 -157
-329 -465 -482 -684 l-279 -398 -45 3 -46 3 -3 1375 c-1 756 0 1381 3 1388 3
9 210 12 985 12 l980 0 0 -71z m-3 -2706 c-2 -2 -421 -2 -930 -1 l-927 3 288
410 c514 733 671 953 687 959 8 3 15 13 15 22 0 13 249 366 796 1125 l69 97 3
-1306 c1 -718 1 -1307 -1 -1309z"/>
<path d="M4342 2593 c3 -26 4 -26 83 -26 79 0 80 0 83 26 3 21 -1 27 -17 27
-12 0 -21 -8 -24 -22 l-4 -23 -2 23 c0 12 -7 22 -15 22 -9 0 -12 -7 -9 -20 3
-11 0 -20 -6 -20 -6 0 -11 9 -11 20 0 11 -6 20 -14 20 -9 0 -12 -7 -9 -20 3
-11 0 -20 -6 -20 -6 0 -11 9 -11 20 0 14 -7 20 -21 20 -16 0 -20 -5 -17 -27z
m15 -5 c-3 -8 -6 -5 -6 6 -1 11 2 17 5 13 3 -3 4 -12 1 -19z m130 0 c-3 -8 -6
-5 -6 6 -1 11 2 17 5 13 3 -3 4 -12 1 -19z"/>
<path d="M10 2510 c0 -5 5 -10 11 -10 8 0 8 -5 -1 -15 -11 -13 -7 -15 24 -16
20 -1 42 -2 49 -3 6 -1 13 11 15 27 3 22 -1 27 -17 27 -14 0 -21 -6 -21 -20 0
-11 -6 -20 -14 -20 -9 0 -12 7 -9 20 4 15 0 20 -16 20 -11 0 -21 -4 -21 -10z
m77 -22 c-3 -8 -6 -5 -6 6 -1 11 2 17 5 13 3 -3 4 -12 1 -19z"/>
<path d="M4342 2123 c3 -26 5 -26 76 -27 85 -1 97 3 87 33 -10 31 -72 30 -78
-1 l-4 -23 -2 23 c0 12 -7 22 -15 22 -9 0 -12 -7 -9 -20 3 -11 0 -20 -6 -20
-6 0 -11 9 -11 20 0 14 -7 20 -21 20 -16 0 -20 -5 -17 -27z m15 -5 c-3 -8 -6
-5 -6 6 -1 11 2 17 5 13 3 -3 4 -12 1 -19z m90 0 c-3 -8 -6 -5 -6 6 -1 11 2
17 5 13 3 -3 4 -12 1 -19z"/>
<path d="M15 1946 c0 -21 5 -25 38 -28 47 -5 61 4 52 31 -8 27 -35 28 -35 1 0
-11 -7 -20 -15 -20 -8 0 -15 9 -15 20 0 11 -6 20 -12 20 -7 0 -13 -11 -13 -24z"/>
<path d="M4342 1663 c3 -26 4 -26 83 -27 l80 -1 3 28 c3 25 1 27 -37 27 -33 0
-40 -4 -44 -22 l-4 -23 -2 23 c0 12 -7 22 -15 22 -9 0 -12 -7 -9 -20 3 -11 0
-20 -6 -20 -6 0 -11 9 -11 20 0 14 -7 20 -21 20 -16 0 -20 -5 -17 -27z m15 -5
c-3 -8 -6 -5 -6 6 -1 11 2 17 5 13 3 -3 4 -12 1 -19z m90 0 c-3 -8 -6 -5 -6 6
-1 11 2 17 5 13 3 -3 4 -12 1 -19z m40 0 c-3 -8 -6 -5 -6 6 -1 11 2 17 5 13 3
-3 4 -12 1 -19z"/>
<path d="M14 1388 c1 -19 8 -24 41 -29 49 -8 55 -5 55 27 0 17 -5 24 -20 24
-13 0 -20 -7 -20 -20 0 -11 -7 -20 -15 -20 -8 0 -15 9 -15 20 0 11 -6 20 -13
20 -8 0 -13 -10 -13 -22z m73 -10 c-3 -8 -6 -5 -6 6 -1 11 2 17 5 13 3 -3 4
-12 1 -19z"/>
<path d="M4342 1193 c3 -26 6 -28 56 -28 30 0 56 3 59 8 3 4 10 4 17 -2 18
-15 39 3 31 28 -5 18 -14 21 -60 21 -48 0 -54 -3 -58 -22 l-4 -23 -2 23 c-1
15 -7 22 -22 22 -16 0 -20 -5 -17 -27z m15 -5 c-3 -8 -6 -5 -6 6 -1 11 2 17 5
13 3 -3 4 -12 1 -19z m50 0 c-3 -8 -6 -5 -6 6 -1 11 2 17 5 13 3 -3 4 -12 1
-19z"/>
<path d="M12 823 c3 -26 6 -28 46 -27 51 2 56 6 47 33 -8 27 -35 27 -35 1 0
-11 -4 -20 -10 -20 -5 0 -10 9 -10 20 0 14 -7 20 -21 20 -16 0 -20 -5 -17 -27z
m15 -5 c-3 -8 -6 -5 -6 6 -1 11 2 17 5 13 3 -3 4 -12 1 -19z"/>
<path d="M4342 733 c3 -26 6 -28 56 -28 30 0 56 3 59 8 3 4 11 3 18 -3 19 -16
35 -4 35 26 0 23 -3 24 -59 24 -54 0 -60 -2 -64 -22 l-4 -23 -2 23 c-1 15 -7
22 -22 22 -16 0 -20 -5 -17 -27z m15 -5 c-3 -8 -6 -5 -6 6 -1 11 2 17 5 13 3
-3 4 -12 1 -19z m50 0 c-3 -8 -6 -5 -6 6 -1 11 2 17 5 13 3 -3 4 -12 1 -19z
m80 0 c-3 -8 -6 -5 -6 6 -1 11 2 17 5 13 3 -3 4 -12 1 -19z"/>
<path d="M12 263 c3 -26 6 -28 48 -28 42 0 45 2 48 28 3 22 -1 27 -17 27 -14
0 -21 -6 -21 -20 0 -11 -4 -20 -10 -20 -5 0 -10 9 -10 20 0 14 -7 20 -21 20
-16 0 -20 -5 -17 -27z m15 -5 c-3 -8 -6 -5 -6 6 -1 11 2 17 5 13 3 -3 4 -12 1
-19z m60 0 c-3 -8 -6 -5 -6 6 -1 11 2 17 5 13 3 -3 4 -12 1 -19z"/>
<path d="M2180 280 c0 -5 5 -10 10 -10 6 0 10 5 10 10 0 6 -4 10 -10 10 -5 0
-10 -4 -10 -10z"/>
<path d="M2210 281 c0 -6 5 -13 10 -16 6 -3 10 1 10 9 0 9 -4 16 -10 16 -5 0
-10 -4 -10 -9z"/>
<path d="M2246 283 c-11 -11 -6 -23 9 -23 8 0 15 4 15 9 0 13 -16 22 -24 14z"/>
<path d="M4342 263 c3 -27 4 -28 76 -28 84 0 97 4 87 34 -5 18 -14 21 -60 21
-48 0 -54 -3 -58 -22 l-4 -23 -2 23 c-1 15 -7 22 -22 22 -16 0 -20 -5 -17 -27z
m15 -5 c-3 -8 -6 -5 -6 6 -1 11 2 17 5 13 3 -3 4 -12 1 -19z m50 0 c-3 -8 -6
-5 -6 6 -1 11 2 17 5 13 3 -3 4 -12 1 -19z"/>
<path d="M162 173 c3 -26 6 -28 48 -28 42 0 45 2 48 28 3 22 -1 27 -17 27 -14
0 -21 -6 -21 -20 0 -11 -4 -20 -10 -20 -5 0 -10 9 -10 20 0 14 -7 20 -21 20
-16 0 -20 -5 -17 -27z m15 -5 c-3 -8 -6 -5 -6 6 -1 11 2 17 5 13 3 -3 4 -12 1
-19z m60 0 c-3 -8 -6 -5 -6 6 -1 11 2 17 5 13 3 -3 4 -12 1 -19z"/>
<path d="M942 173 c2 -16 9 -28 16 -27 6 1 27 2 45 3 27 1 33 5 35 26 1 19 -3
25 -18 25 -11 0 -20 -4 -20 -10 0 -5 5 -10 11 -10 5 0 7 -4 4 -10 -11 -18 -35
-11 -35 10 0 14 -7 20 -21 20 -16 0 -20 -5 -17 -27z m15 -5 c-3 -8 -6 -5 -6 6
-1 11 2 17 5 13 3 -3 4 -12 1 -19z"/>
<path d="M1720 176 c0 -28 11 -39 33 -31 21 9 9 55 -14 55 -13 0 -19 -7 -19
-24z m17 -8 c-3 -8 -6 -5 -6 6 -1 11 2 17 5 13 3 -3 4 -12 1 -19z"/>
<path d="M1781 186 c-14 -17 -7 -36 15 -36 15 0 16 6 5 33 -6 17 -8 17 -20 3z"/>
<path d="M2182 173 l3 -27 91 -1 c91 -1 91 -1 102 27 l10 28 -74 0 c-67 0 -74
-2 -74 -20 0 -11 -4 -20 -10 -20 -5 0 -10 9 -10 20 0 14 -7 20 -21 20 -16 0
-20 -5 -17 -27z m15 -5 c-3 -8 -6 -5 -6 6 -1 11 2 17 5 13 3 -3 4 -12 1 -19z
m60 0 c-3 -8 -6 -5 -6 6 -1 11 2 17 5 13 3 -3 4 -12 1 -19z m40 0 c-3 -8 -6
-5 -6 6 -1 11 2 17 5 13 3 -3 4 -12 1 -19z m40 0 c-3 -8 -6 -5 -6 6 -1 11 2
17 5 13 3 -3 4 -12 1 -19z"/>
<path d="M2920 176 c0 -28 11 -39 33 -31 21 9 9 55 -14 55 -13 0 -19 -7 -19
-24z m17 -8 c-3 -8 -6 -5 -6 6 -1 11 2 17 5 13 3 -3 4 -12 1 -19z"/>
<path d="M2982 173 c3 -28 4 -28 73 -28 69 0 70 0 72 28 l2 27 -75 0 -75 0 3
-27z m15 -5 c-3 -8 -6 -5 -6 6 -1 11 2 17 5 13 3 -3 4 -12 1 -19z m30 0 c-3
-8 -6 -5 -6 6 -1 11 2 17 5 13 3 -3 4 -12 1 -19z m40 0 c-3 -8 -6 -5 -6 6 -1
11 2 17 5 13 3 -3 4 -12 1 -19z"/>
<path d="M3652 173 l3 -28 90 0 c94 -1 115 5 115 36 0 17 -8 19 -75 19 -68 0
-75 -2 -75 -20 0 -11 -4 -20 -10 -20 -5 0 -10 9 -10 20 0 14 -7 20 -21 20 -16
0 -20 -5 -17 -27z m15 -5 c-3 -8 -6 -5 -6 6 -1 11 2 17 5 13 3 -3 4 -12 1 -19z
m60 0 c-3 -8 -6 -5 -6 6 -1 11 2 17 5 13 3 -3 4 -12 1 -19z m40 0 c-3 -8 -6
-5 -6 6 -1 11 2 17 5 13 3 -3 4 -12 1 -19z m30 0 c-3 -8 -6 -5 -6 6 -1 11 2
17 5 13 3 -3 4 -12 1 -19z"/>
<path d="M1137 73 c-4 -3 -7 -15 -7 -25 0 -14 8 -18 34 -18 26 0 33 4 32 18
-2 27 -41 44 -59 25z m29 -30 c-10 -10 -19 5 -10 18 6 11 8 11 12 0 2 -7 1
-15 -2 -18z"/>
<path d="M3247 73 c-4 -3 -7 -15 -7 -25 0 -14 8 -18 34 -18 26 0 33 4 32 18
-2 27 -41 44 -59 25z m29 -30 c-10 -10 -19 5 -10 18 6 11 8 11 12 0 2 -7 1
-15 -2 -18z"/>
</g>
</svg>
