<?xml version="1.0" standalone="no"?>
<!DOCTYPE svg PUBLIC "-//W3C//DTD SVG 20010904//EN"
 "http://www.w3.org/TR/2001/REC-SVG-20010904/DTD/svg10.dtd">
<svg version="1.0" xmlns="http://www.w3.org/2000/svg"
 width="184.000000pt" height="110.000000pt" viewBox="0 0 184.000000 110.000000"
 preserveAspectRatio="xMidYMid meet">
<metadata>
Created by potrace 1.16, written by Peter Selinger 2001-2019
</metadata>
<g transform="translate(0.000000,110.000000) scale(0.100000,-0.100000)"
fill="#000000" stroke="none">
<path d="M0 560 l0 -530 920 0 920 0 0 530 0 530 -920 0 -920 0 0 -530z m1820
90 l0 -430 -835 0 -835 0 0 430 0 430 835 0 835 0 0 -430z"/>
<path d="M187 1044 c-4 -4 -7 -76 -7 -161 l0 -153 140 0 141 0 -3 158 -3 157
-131 3 c-71 1 -133 -1 -137 -4z m253 -159 l0 -145 -125 0 -125 0 0 145 0 145
125 0 125 0 0 -145z"/>
<path d="M1070 960 c0 -5 5 -10 11 -10 5 0 7 5 4 10 -3 6 -8 10 -11 10 -2 0
-4 -4 -4 -10z"/>
<path d="M1008 953 c7 -3 16 -2 19 1 4 3 -2 6 -13 5 -11 0 -14 -3 -6 -6z"/>
<path d="M896 931 c-4 -5 3 -7 14 -4 23 6 26 13 6 13 -8 0 -17 -4 -20 -9z"/>
<path d="M1151 926 c10 -9 89 -46 89 -41 0 5 -75 45 -86 45 -4 0 -5 -2 -3 -4z"/>
<path d="M785 858 c-34 -35 -35 -38 -9 -17 27 21 60 59 51 59 -2 0 -21 -19
-42 -42z"/>
<path d="M1315 826 c93 -85 124 -110 130 -104 3 2 -28 31 -68 63 -90 73 -114
89 -62 41z"/>
<path d="M543 620 c-105 -105 -206 -197 -224 -205 -40 -17 -75 -43 -68 -50 11
-11 158 91 204 143 28 30 103 109 168 175 107 109 123 127 114 127 -2 0 -89
-86 -194 -190z"/>
<path d="M1475 702 c37 -35 193 -95 252 -95 29 0 58 4 63 9 5 5 -16 9 -58 9
-37 0 -76 4 -87 9 -11 5 -22 10 -25 11 -30 10 -54 21 -105 46 -44 22 -55 25
-40 11z"/>
<path d="M170 390 c0 -8 5 -22 10 -30 9 -13 10 -13 10 0 0 8 -5 22 -10 30 -9
13 -10 13 -10 0z"/>
<path d="M205 350 c3 -5 8 -10 11 -10 2 0 4 5 4 10 0 6 -5 10 -11 10 -5 0 -7
-4 -4 -10z"/>
</g>
</svg>
