<?xml version="1.0" standalone="no"?>
<!DOCTYPE svg PUBLIC "-//W3C//DTD SVG 20010904//EN"
 "http://www.w3.org/TR/2001/REC-SVG-20010904/DTD/svg10.dtd">
<svg version="1.0" xmlns="http://www.w3.org/2000/svg"
 width="192.000000pt" height="118.000000pt" viewBox="0 0 192.000000 118.000000"
 preserveAspectRatio="xMidYMid meet">
<metadata>
Created by potrace 1.16, written by Peter Selinger 2001-2019
</metadata>
<g transform="translate(0.000000,118.000000) scale(0.100000,-0.100000)"
fill="#000000" stroke="none">
<path d="M0 595 l0 -575 960 0 960 0 0 575 0 575 -960 0 -960 0 0 -575z m1900
90 l0 -475 -875 0 -875 0 0 475 0 475 875 0 875 0 0 -475z"/>
<path d="M187 1124 c-4 -4 -7 -135 -7 -291 l0 -283 141 0 141 0 -33 -39 c-19
-21 -45 -45 -59 -52 -14 -8 -54 -33 -90 -57 l-64 -44 -23 28 -23 29 0 -25 c0
-37 42 -54 83 -33 17 8 37 22 45 29 7 8 34 26 60 41 26 15 67 49 93 75 43 46
47 48 102 48 l57 0 0 65 0 65 88 90 c48 49 101 105 117 123 51 58 116 95 199
113 73 16 80 16 132 0 29 -9 54 -22 54 -27 0 -6 4 -8 9 -5 5 3 25 -5 45 -19
20 -14 40 -25 43 -25 8 0 106 -83 157 -132 22 -21 45 -38 51 -38 6 0 20 -8 31
-18 22 -20 132 -75 190 -96 33 -11 86 -14 142 -7 6 0 12 8 12 16 0 12 -5 13
-27 4 -28 -10 -102 -4 -132 11 -9 4 -29 13 -46 20 -16 7 -37 16 -45 21 -8 5
-31 16 -50 26 -36 17 -74 46 -194 146 -39 32 -113 79 -165 106 -93 46 -98 48
-156 41 -33 -4 -87 -15 -120 -25 -57 -16 -68 -24 -197 -156 l-138 -140 -2 208
-3 208 -206 3 c-113 1 -208 -1 -212 -4z m403 -289 l0 -275 -200 0 -200 0 0
275 0 275 200 0 200 0 0 -275z"/>
<path d="M268 673 c23 -2 59 -2 80 0 20 2 1 4 -43 4 -44 0 -61 -2 -37 -4z"/>
</g>
</svg>
