<?xml version="1.0" encoding="UTF-8"?>
<svg xmlns="http://www.w3.org/2000/svg" xmlns:xlink="http://www.w3.org/1999/xlink" width="600" height="450" viewBox="0 0 600 450">
<defs>
<g>
<g id="glyph-0-0-e8ed3286">
<path d="M 4.984375 -2 C 4.984375 -2.140625 4.875 -2.140625 4.78125 -2.140625 C 4.609375 -2.140625 4.609375 -2.125 4.5 -1.875 C 4.234375 -1.203125 3.6875 -0.15625 2.890625 -0.15625 C 2.5 -0.15625 2.5 -0.5 2.5 -0.734375 C 2.5 -0.828125 2.5 -1.046875 2.609375 -1.4375 L 3.640625 -5.59375 L 4.828125 -5.59375 C 5.0625 -5.59375 5.21875 -5.59375 5.21875 -5.859375 C 5.21875 -6.03125 5.09375 -6.03125 4.875 -6.03125 L 3.75 -6.03125 L 4.265625 -8.109375 C 4.328125 -8.296875 4.328125 -8.328125 4.328125 -8.40625 C 4.328125 -8.6875 4.09375 -8.765625 3.953125 -8.765625 C 3.59375 -8.765625 3.453125 -8.46875 3.40625 -8.265625 L 2.859375 -6.03125 L 1.671875 -6.03125 C 1.421875 -6.03125 1.28125 -6.03125 1.28125 -5.765625 C 1.28125 -5.59375 1.40625 -5.59375 1.625 -5.59375 L 2.75 -5.59375 L 1.734375 -1.578125 C 1.71875 -1.53125 1.671875 -1.296875 1.671875 -1.109375 C 1.671875 -0.40625 2.125 0.15625 2.859375 0.15625 C 4.265625 0.15625 4.984375 -1.9375 4.984375 -2 Z M 4.984375 -2 "/>
</g>
<g id="glyph-1-0-e8ed3286">
<path d="M 6.4375 -4.484375 C 6.4375 -5.59375 6.375 -6.71875 5.875 -7.75 C 5.234375 -9.09375 4.09375 -9.328125 3.5 -9.328125 C 2.65625 -9.328125 1.640625 -8.953125 1.0625 -7.65625 C 0.609375 -6.6875 0.546875 -5.59375 0.546875 -4.484375 C 0.546875 -3.4375 0.609375 -2.171875 1.171875 -1.109375 C 1.78125 0.03125 2.796875 0.3125 3.484375 0.3125 C 4.234375 0.3125 5.3125 0.015625 5.921875 -1.3125 C 6.375 -2.28125 6.4375 -3.375 6.4375 -4.484375 Z M 5.28125 -4.640625 C 5.28125 -3.59375 5.28125 -2.640625 5.125 -1.75 C 4.90625 -0.421875 4.109375 0 3.484375 0 C 2.9375 0 2.109375 -0.34375 1.859375 -1.6875 C 1.703125 -2.53125 1.703125 -3.828125 1.703125 -4.640625 C 1.703125 -5.546875 1.703125 -6.46875 1.8125 -7.21875 C 2.09375 -8.890625 3.140625 -9.015625 3.484375 -9.015625 C 3.953125 -9.015625 4.875 -8.765625 5.140625 -7.375 C 5.28125 -6.59375 5.28125 -5.53125 5.28125 -4.640625 Z M 5.28125 -4.640625 "/>
</g>
<g id="glyph-1-1-e8ed3286">
<path d="M 2.6875 -0.734375 C 2.6875 -1.140625 2.359375 -1.484375 1.953125 -1.484375 C 1.546875 -1.484375 1.203125 -1.140625 1.203125 -0.734375 C 1.203125 -0.34375 1.546875 0 1.953125 0 C 2.359375 0 2.6875 -0.34375 2.6875 -0.734375 Z M 2.6875 -0.734375 "/>
</g>
<g id="glyph-2-0-e8ed3286">
<path d="M 6.4375 -4.484375 C 6.4375 -5.59375 6.375 -6.71875 5.875 -7.75 C 5.234375 -9.09375 4.09375 -9.328125 3.5 -9.328125 C 2.65625 -9.328125 1.640625 -8.953125 1.0625 -7.65625 C 0.609375 -6.6875 0.546875 -5.59375 0.546875 -4.484375 C 0.546875 -3.4375 0.609375 -2.171875 1.171875 -1.109375 C 1.78125 0.03125 2.796875 0.3125 3.484375 0.3125 C 4.234375 0.3125 5.3125 0.015625 5.921875 -1.3125 C 6.375 -2.28125 6.4375 -3.375 6.4375 -4.484375 Z M 5.28125 -4.640625 C 5.28125 -3.59375 5.28125 -2.640625 5.125 -1.75 C 4.90625 -0.421875 4.109375 0 3.484375 0 C 2.9375 0 2.109375 -0.34375 1.859375 -1.6875 C 1.703125 -2.53125 1.703125 -3.828125 1.703125 -4.640625 C 1.703125 -5.546875 1.703125 -6.46875 1.8125 -7.21875 C 2.09375 -8.890625 3.140625 -9.015625 3.484375 -9.015625 C 3.953125 -9.015625 4.875 -8.765625 5.140625 -7.375 C 5.28125 -6.59375 5.28125 -5.53125 5.28125 -4.640625 Z M 5.28125 -4.640625 "/>
</g>
<g id="glyph-3-0-e8ed3286">
<path d="M 6.4375 -4.484375 C 6.4375 -5.59375 6.375 -6.71875 5.875 -7.75 C 5.234375 -9.09375 4.09375 -9.328125 3.5 -9.328125 C 2.65625 -9.328125 1.640625 -8.953125 1.0625 -7.65625 C 0.609375 -6.6875 0.546875 -5.59375 0.546875 -4.484375 C 0.546875 -3.4375 0.609375 -2.171875 1.171875 -1.109375 C 1.78125 0.03125 2.796875 0.3125 3.484375 0.3125 C 4.234375 0.3125 5.3125 0.015625 5.921875 -1.3125 C 6.375 -2.28125 6.4375 -3.375 6.4375 -4.484375 Z M 5.28125 -4.640625 C 5.28125 -3.59375 5.28125 -2.640625 5.125 -1.75 C 4.90625 -0.421875 4.109375 0 3.484375 0 C 2.9375 0 2.109375 -0.34375 1.859375 -1.6875 C 1.703125 -2.53125 1.703125 -3.828125 1.703125 -4.640625 C 1.703125 -5.546875 1.703125 -6.46875 1.8125 -7.21875 C 2.09375 -8.890625 3.140625 -9.015625 3.484375 -9.015625 C 3.953125 -9.015625 4.875 -8.765625 5.140625 -7.375 C 5.28125 -6.59375 5.28125 -5.53125 5.28125 -4.640625 Z M 5.28125 -4.640625 "/>
</g>
<g id="glyph-3-1-e8ed3286">
<path d="M 5.859375 0 L 5.859375 -0.4375 L 5.421875 -0.4375 C 4.15625 -0.4375 4.109375 -0.59375 4.109375 -1.109375 L 4.109375 -8.953125 C 4.109375 -9.296875 4.109375 -9.328125 3.796875 -9.328125 C 2.921875 -8.421875 1.6875 -8.421875 1.25 -8.421875 L 1.25 -8 C 1.53125 -8 2.359375 -8 3.078125 -8.359375 L 3.078125 -1.109375 C 3.078125 -0.609375 3.03125 -0.4375 1.78125 -0.4375 L 1.328125 -0.4375 L 1.328125 0 C 1.8125 -0.046875 3.03125 -0.046875 3.59375 -0.046875 C 4.15625 -0.046875 5.375 -0.046875 5.859375 0 Z M 5.859375 0 "/>
</g>
<g id="glyph-3-2-e8ed3286">
<path d="M 2.6875 -0.734375 C 2.6875 -1.140625 2.359375 -1.484375 1.953125 -1.484375 C 1.546875 -1.484375 1.203125 -1.140625 1.203125 -0.734375 C 1.203125 -0.34375 1.546875 0 1.953125 0 C 2.359375 0 2.6875 -0.34375 2.6875 -0.734375 Z M 2.6875 -0.734375 "/>
</g>
<g id="glyph-4-0-e8ed3286">
<path d="M 2.6875 -0.734375 C 2.6875 -1.140625 2.359375 -1.484375 1.953125 -1.484375 C 1.546875 -1.484375 1.203125 -1.140625 1.203125 -0.734375 C 1.203125 -0.34375 1.546875 0 1.953125 0 C 2.359375 0 2.6875 -0.34375 2.6875 -0.734375 Z M 2.6875 -0.734375 "/>
</g>
<g id="glyph-4-1-e8ed3286">
<path d="M 6.28125 -2.8125 C 6.28125 -4.484375 5.140625 -5.875 3.625 -5.875 C 2.953125 -5.875 2.359375 -5.65625 1.84375 -5.171875 L 1.84375 -7.890625 C 2.125 -7.8125 2.59375 -7.71875 3.03125 -7.71875 C 4.765625 -7.71875 5.734375 -8.984375 5.734375 -9.171875 C 5.734375 -9.25 5.703125 -9.328125 5.59375 -9.328125 C 5.59375 -9.328125 5.5625 -9.328125 5.484375 -9.28125 C 5.203125 -9.15625 4.515625 -8.875 3.578125 -8.875 C 3.03125 -8.875 2.375 -8.96875 1.71875 -9.265625 C 1.609375 -9.3125 1.546875 -9.3125 1.546875 -9.3125 C 1.40625 -9.3125 1.40625 -9.203125 1.40625 -8.96875 L 1.40625 -4.828125 C 1.40625 -4.578125 1.40625 -4.46875 1.609375 -4.46875 C 1.703125 -4.46875 1.734375 -4.515625 1.796875 -4.59375 C 1.953125 -4.8125 2.46875 -5.578125 3.59375 -5.578125 C 4.328125 -5.578125 4.671875 -4.921875 4.78125 -4.671875 C 5.015625 -4.15625 5.046875 -3.609375 5.046875 -2.90625 C 5.046875 -2.421875 5.046875 -1.578125 4.703125 -1 C 4.375 -0.453125 3.84375 -0.078125 3.203125 -0.078125 C 2.1875 -0.078125 1.390625 -0.828125 1.140625 -1.65625 C 1.1875 -1.640625 1.234375 -1.625 1.390625 -1.625 C 1.84375 -1.625 2.09375 -1.96875 2.09375 -2.3125 C 2.09375 -2.640625 1.84375 -3 1.390625 -3 C 1.1875 -3 0.703125 -2.890625 0.703125 -2.25 C 0.703125 -1.046875 1.671875 0.3125 3.234375 0.3125 C 4.859375 0.3125 6.28125 -1.03125 6.28125 -2.8125 Z M 6.28125 -2.8125 "/>
</g>
<g id="glyph-5-0-e8ed3286">
<path d="M 10.109375 -3.5 C 10.109375 -3.65625 9.984375 -3.78125 9.828125 -3.78125 L 1.0625 -3.78125 C 0.90625 -3.78125 0.78125 -3.65625 0.78125 -3.5 C 0.78125 -3.34375 0.90625 -3.21875 1.0625 -3.21875 L 9.828125 -3.21875 C 9.984375 -3.21875 10.109375 -3.34375 10.109375 -3.5 Z M 10.109375 -3.5 "/>
</g>
<g id="glyph-6-0-e8ed3286">
<path d="M 5.859375 0 L 5.859375 -0.4375 L 5.421875 -0.4375 C 4.15625 -0.4375 4.109375 -0.59375 4.109375 -1.109375 L 4.109375 -8.953125 C 4.109375 -9.296875 4.109375 -9.328125 3.796875 -9.328125 C 2.921875 -8.421875 1.6875 -8.421875 1.25 -8.421875 L 1.25 -8 C 1.53125 -8 2.359375 -8 3.078125 -8.359375 L 3.078125 -1.109375 C 3.078125 -0.609375 3.03125 -0.4375 1.78125 -0.4375 L 1.328125 -0.4375 L 1.328125 0 C 1.8125 -0.046875 3.03125 -0.046875 3.59375 -0.046875 C 4.15625 -0.046875 5.375 -0.046875 5.859375 0 Z M 5.859375 0 "/>
</g>
<g id="glyph-6-1-e8ed3286">
<path d="M 6.4375 -4.484375 C 6.4375 -5.59375 6.375 -6.71875 5.875 -7.75 C 5.234375 -9.09375 4.09375 -9.328125 3.5 -9.328125 C 2.65625 -9.328125 1.640625 -8.953125 1.0625 -7.65625 C 0.609375 -6.6875 0.546875 -5.59375 0.546875 -4.484375 C 0.546875 -3.4375 0.609375 -2.171875 1.171875 -1.109375 C 1.78125 0.03125 2.796875 0.3125 3.484375 0.3125 C 4.234375 0.3125 5.3125 0.015625 5.921875 -1.3125 C 6.375 -2.28125 6.4375 -3.375 6.4375 -4.484375 Z M 5.28125 -4.640625 C 5.28125 -3.59375 5.28125 -2.640625 5.125 -1.75 C 4.90625 -0.421875 4.109375 0 3.484375 0 C 2.9375 0 2.109375 -0.34375 1.859375 -1.6875 C 1.703125 -2.53125 1.703125 -3.828125 1.703125 -4.640625 C 1.703125 -5.546875 1.703125 -6.46875 1.8125 -7.21875 C 2.09375 -8.890625 3.140625 -9.015625 3.484375 -9.015625 C 3.953125 -9.015625 4.875 -8.765625 5.140625 -7.375 C 5.28125 -6.59375 5.28125 -5.53125 5.28125 -4.640625 Z M 5.28125 -4.640625 "/>
</g>
<g id="glyph-7-0-e8ed3286">
<path d="M 5.859375 0 L 5.859375 -0.4375 L 5.421875 -0.4375 C 4.15625 -0.4375 4.109375 -0.59375 4.109375 -1.109375 L 4.109375 -8.953125 C 4.109375 -9.296875 4.109375 -9.328125 3.796875 -9.328125 C 2.921875 -8.421875 1.6875 -8.421875 1.25 -8.421875 L 1.25 -8 C 1.53125 -8 2.359375 -8 3.078125 -8.359375 L 3.078125 -1.109375 C 3.078125 -0.609375 3.03125 -0.4375 1.78125 -0.4375 L 1.328125 -0.4375 L 1.328125 0 C 1.8125 -0.046875 3.03125 -0.046875 3.59375 -0.046875 C 4.15625 -0.046875 5.375 -0.046875 5.859375 0 Z M 5.859375 0 "/>
</g>
<g id="glyph-8-0-e8ed3286">
<path d="M 6.828125 -2 C 6.828125 -2.140625 6.71875 -2.140625 6.625 -2.140625 C 6.453125 -2.140625 6.4375 -2.125 6.375 -1.90625 C 5.984375 -0.703125 5.296875 -0.15625 4.703125 -0.15625 C 4.421875 -0.15625 4.046875 -0.328125 4.046875 -1.046875 C 4.046875 -1.390625 4.203125 -1.984375 4.3125 -2.46875 L 4.78125 -4.375 C 4.984375 -5.109375 5.359375 -5.875 6.015625 -5.875 C 6.0625 -5.875 6.40625 -5.875 6.640625 -5.6875 C 6.078125 -5.546875 6.078125 -5.015625 6.078125 -5.015625 C 6.078125 -4.828125 6.203125 -4.5625 6.5625 -4.5625 C 6.8125 -4.5625 7.25 -4.765625 7.25 -5.3125 C 7.25 -6.015625 6.4375 -6.1875 6.03125 -6.1875 C 5.265625 -6.1875 4.796875 -5.5 4.65625 -5.234375 C 4.359375 -6.078125 3.671875 -6.1875 3.3125 -6.1875 C 1.921875 -6.1875 1.15625 -4.359375 1.15625 -4.03125 C 1.15625 -3.890625 1.296875 -3.890625 1.375 -3.890625 C 1.546875 -3.890625 1.546875 -3.90625 1.625 -4.125 C 2 -5.328125 2.734375 -5.875 3.296875 -5.875 C 3.703125 -5.875 3.96875 -5.5625 3.96875 -5 C 3.96875 -4.65625 3.796875 -3.96875 3.671875 -3.453125 L 3.34375 -2.1875 C 3.125 -1.28125 2.828125 -0.15625 1.984375 -0.15625 C 1.953125 -0.15625 1.609375 -0.15625 1.375 -0.34375 C 1.796875 -0.46875 1.921875 -0.8125 1.921875 -1.015625 C 1.921875 -1.390625 1.625 -1.46875 1.4375 -1.46875 C 1.09375 -1.46875 0.734375 -1.171875 0.734375 -0.71875 C 0.734375 -0.171875 1.328125 0.15625 1.96875 0.15625 C 2.640625 0.15625 3.109375 -0.375 3.34375 -0.796875 C 3.625 0 4.3125 0.15625 4.671875 0.15625 C 6.125 0.15625 6.828125 -1.71875 6.828125 -2 Z M 6.828125 -2 "/>
</g>
<g id="glyph-9-0-e8ed3286">
<path d="M 6.828125 -2 C 6.828125 -2.140625 6.71875 -2.140625 6.625 -2.140625 C 6.453125 -2.140625 6.4375 -2.125 6.375 -1.90625 C 5.984375 -0.703125 5.296875 -0.15625 4.703125 -0.15625 C 4.421875 -0.15625 4.046875 -0.328125 4.046875 -1.046875 C 4.046875 -1.390625 4.203125 -1.984375 4.3125 -2.46875 L 4.78125 -4.375 C 4.984375 -5.109375 5.359375 -5.875 6.015625 -5.875 C 6.0625 -5.875 6.40625 -5.875 6.640625 -5.6875 C 6.078125 -5.546875 6.078125 -5.015625 6.078125 -5.015625 C 6.078125 -4.828125 6.203125 -4.5625 6.5625 -4.5625 C 6.8125 -4.5625 7.25 -4.765625 7.25 -5.3125 C 7.25 -6.015625 6.4375 -6.1875 6.03125 -6.1875 C 5.265625 -6.1875 4.796875 -5.5 4.65625 -5.234375 C 4.359375 -6.078125 3.671875 -6.1875 3.3125 -6.1875 C 1.921875 -6.1875 1.15625 -4.359375 1.15625 -4.03125 C 1.15625 -3.890625 1.296875 -3.890625 1.375 -3.890625 C 1.546875 -3.890625 1.546875 -3.90625 1.625 -4.125 C 2 -5.328125 2.734375 -5.875 3.296875 -5.875 C 3.703125 -5.875 3.96875 -5.5625 3.96875 -5 C 3.96875 -4.65625 3.796875 -3.96875 3.671875 -3.453125 L 3.34375 -2.1875 C 3.125 -1.28125 2.828125 -0.15625 1.984375 -0.15625 C 1.953125 -0.15625 1.609375 -0.15625 1.375 -0.34375 C 1.796875 -0.46875 1.921875 -0.8125 1.921875 -1.015625 C 1.921875 -1.390625 1.625 -1.46875 1.4375 -1.46875 C 1.09375 -1.46875 0.734375 -1.171875 0.734375 -0.71875 C 0.734375 -0.171875 1.328125 0.15625 1.96875 0.15625 C 2.640625 0.15625 3.109375 -0.375 3.34375 -0.796875 C 3.625 0 4.3125 0.15625 4.671875 0.15625 C 6.125 0.15625 6.828125 -1.71875 6.828125 -2 Z M 6.828125 -2 "/>
</g>
<g id="glyph-10-0-e8ed3286">
<path d="M 3.859375 -2.6875 C 3.859375 -3.359375 3.828125 -4.03125 3.53125 -4.65625 C 3.140625 -5.46875 2.453125 -5.59375 2.09375 -5.59375 C 1.59375 -5.59375 0.984375 -5.375 0.640625 -4.59375 C 0.375 -4.015625 0.328125 -3.359375 0.328125 -2.6875 C 0.328125 -2.0625 0.359375 -1.296875 0.703125 -0.671875 C 1.0625 0.015625 1.6875 0.1875 2.09375 0.1875 C 2.546875 0.1875 3.1875 0.015625 3.5625 -0.796875 C 3.828125 -1.375 3.859375 -2.03125 3.859375 -2.6875 Z M 3.171875 -2.796875 C 3.171875 -2.15625 3.171875 -1.59375 3.078125 -1.046875 C 2.953125 -0.25 2.46875 0 2.09375 0 C 1.765625 0 1.265625 -0.203125 1.125 -1.015625 C 1.03125 -1.515625 1.03125 -2.296875 1.03125 -2.796875 C 1.03125 -3.328125 1.03125 -3.890625 1.09375 -4.34375 C 1.25 -5.34375 1.890625 -5.40625 2.09375 -5.40625 C 2.375 -5.40625 2.921875 -5.265625 3.078125 -4.4375 C 3.171875 -3.953125 3.171875 -3.328125 3.171875 -2.796875 Z M 3.171875 -2.796875 "/>
</g>
<g id="glyph-10-1-e8ed3286">
<path d="M 1.609375 -0.453125 C 1.609375 -0.6875 1.40625 -0.890625 1.171875 -0.890625 C 0.921875 -0.890625 0.71875 -0.6875 0.71875 -0.453125 C 0.71875 -0.203125 0.921875 0 1.171875 0 C 1.40625 0 1.609375 -0.203125 1.609375 -0.453125 Z M 1.609375 -0.453125 "/>
</g>
<g id="glyph-10-2-e8ed3286">
<path d="M 3.78125 -1.46875 L 3.5625 -1.46875 C 3.515625 -1.203125 3.46875 -0.84375 3.375 -0.71875 C 3.328125 -0.640625 2.765625 -0.640625 2.578125 -0.640625 L 1.0625 -0.640625 L 1.953125 -1.515625 C 3.265625 -2.671875 3.78125 -3.125 3.78125 -3.96875 C 3.78125 -4.921875 3.015625 -5.59375 2 -5.59375 C 1.046875 -5.59375 0.421875 -4.828125 0.421875 -4.078125 C 0.421875 -3.609375 0.84375 -3.609375 0.859375 -3.609375 C 1.015625 -3.609375 1.296875 -3.703125 1.296875 -4.046875 C 1.296875 -4.265625 1.15625 -4.484375 0.859375 -4.484375 C 0.796875 -4.484375 0.765625 -4.484375 0.75 -4.484375 C 0.9375 -5.03125 1.390625 -5.34375 1.890625 -5.34375 C 2.640625 -5.34375 3.015625 -4.65625 3.015625 -3.96875 C 3.015625 -3.296875 2.59375 -2.625 2.125 -2.109375 L 0.515625 -0.3125 C 0.421875 -0.21875 0.421875 -0.203125 0.421875 0 L 3.53125 0 Z M 3.78125 -1.46875 "/>
</g>
<g id="glyph-10-3-e8ed3286">
<path d="M 3.84375 -1.40625 C 3.84375 -1.71875 3.75 -2.09375 3.4375 -2.453125 C 3.265625 -2.625 3.140625 -2.703125 2.59375 -3.046875 C 3.203125 -3.359375 3.609375 -3.796875 3.609375 -4.34375 C 3.609375 -5.125 2.859375 -5.59375 2.09375 -5.59375 C 1.265625 -5.59375 0.578125 -4.96875 0.578125 -4.1875 C 0.578125 -4.046875 0.59375 -3.671875 0.953125 -3.265625 C 1.046875 -3.171875 1.359375 -2.953125 1.5625 -2.8125 C 1.078125 -2.578125 0.359375 -2.09375 0.359375 -1.265625 C 0.359375 -0.375 1.203125 0.1875 2.09375 0.1875 C 3.046875 0.1875 3.84375 -0.515625 3.84375 -1.40625 Z M 3.25 -4.34375 C 3.25 -3.859375 2.921875 -3.46875 2.40625 -3.171875 L 1.375 -3.84375 C 0.984375 -4.09375 0.953125 -4.375 0.953125 -4.515625 C 0.953125 -5.03125 1.5 -5.390625 2.09375 -5.390625 C 2.703125 -5.390625 3.25 -4.953125 3.25 -4.34375 Z M 3.421875 -1.109375 C 3.421875 -0.484375 2.796875 -0.046875 2.09375 -0.046875 C 1.375 -0.046875 0.765625 -0.578125 0.765625 -1.265625 C 0.765625 -1.75 1.046875 -2.296875 1.75 -2.6875 L 2.796875 -2.03125 C 3.03125 -1.875 3.421875 -1.625 3.421875 -1.109375 Z M 3.421875 -1.109375 "/>
</g>
<g id="glyph-11-0-e8ed3286">
<path d="M 3.78125 -1.46875 L 3.5625 -1.46875 C 3.515625 -1.203125 3.46875 -0.84375 3.375 -0.71875 C 3.328125 -0.640625 2.765625 -0.640625 2.578125 -0.640625 L 1.0625 -0.640625 L 1.953125 -1.515625 C 3.265625 -2.671875 3.78125 -3.125 3.78125 -3.96875 C 3.78125 -4.921875 3.015625 -5.59375 2 -5.59375 C 1.046875 -5.59375 0.421875 -4.828125 0.421875 -4.078125 C 0.421875 -3.609375 0.84375 -3.609375 0.859375 -3.609375 C 1.015625 -3.609375 1.296875 -3.703125 1.296875 -4.046875 C 1.296875 -4.265625 1.15625 -4.484375 0.859375 -4.484375 C 0.796875 -4.484375 0.765625 -4.484375 0.75 -4.484375 C 0.9375 -5.03125 1.390625 -5.34375 1.890625 -5.34375 C 2.640625 -5.34375 3.015625 -4.65625 3.015625 -3.96875 C 3.015625 -3.296875 2.59375 -2.625 2.125 -2.109375 L 0.515625 -0.3125 C 0.421875 -0.21875 0.421875 -0.203125 0.421875 0 L 3.53125 0 Z M 3.78125 -1.46875 "/>
</g>
<g id="glyph-12-0-e8ed3286">
<path d="M 3.84375 -1.71875 C 3.84375 -2.78125 3.09375 -3.59375 2.15625 -3.59375 C 1.59375 -3.59375 1.28125 -3.15625 1.109375 -2.75 L 1.109375 -2.953125 C 1.109375 -5.078125 2.15625 -5.390625 2.578125 -5.390625 C 2.78125 -5.390625 3.140625 -5.34375 3.328125 -5.046875 C 3.1875 -5.046875 2.859375 -5.046875 2.859375 -4.671875 C 2.859375 -4.40625 3.0625 -4.28125 3.25 -4.28125 C 3.375 -4.28125 3.625 -4.359375 3.625 -4.6875 C 3.625 -5.1875 3.265625 -5.59375 2.5625 -5.59375 C 1.484375 -5.59375 0.359375 -4.515625 0.359375 -2.65625 C 0.359375 -0.40625 1.328125 0.1875 2.109375 0.1875 C 3.046875 0.1875 3.84375 -0.609375 3.84375 -1.71875 Z M 3.078125 -1.71875 C 3.078125 -1.3125 3.078125 -0.90625 2.9375 -0.59375 C 2.6875 -0.09375 2.296875 -0.046875 2.109375 -0.046875 C 1.578125 -0.046875 1.328125 -0.5625 1.28125 -0.6875 C 1.125 -1.078125 1.125 -1.75 1.125 -1.90625 C 1.125 -2.5625 1.390625 -3.390625 2.15625 -3.390625 C 2.28125 -3.390625 2.671875 -3.390625 2.9375 -2.875 C 3.078125 -2.5625 3.078125 -2.140625 3.078125 -1.71875 Z M 3.078125 -1.71875 "/>
</g>
<g id="glyph-12-1-e8ed3286">
<path d="M 3.84375 -1.4375 C 3.84375 -2.125 3.3125 -2.78125 2.4375 -2.953125 C 3.125 -3.1875 3.609375 -3.78125 3.609375 -4.4375 C 3.609375 -5.125 2.875 -5.59375 2.0625 -5.59375 C 1.21875 -5.59375 0.578125 -5.09375 0.578125 -4.453125 C 0.578125 -4.171875 0.765625 -4.015625 1.015625 -4.015625 C 1.265625 -4.015625 1.4375 -4.203125 1.4375 -4.453125 C 1.4375 -4.859375 1.046875 -4.859375 0.921875 -4.859375 C 1.171875 -5.28125 1.734375 -5.390625 2.03125 -5.390625 C 2.375 -5.390625 2.84375 -5.203125 2.84375 -4.453125 C 2.84375 -4.34375 2.828125 -3.859375 2.609375 -3.484375 C 2.359375 -3.078125 2.0625 -3.0625 1.859375 -3.046875 C 1.796875 -3.046875 1.59375 -3.03125 1.53125 -3.03125 C 1.46875 -3.015625 1.40625 -3.015625 1.40625 -2.921875 C 1.40625 -2.828125 1.46875 -2.828125 1.609375 -2.828125 L 1.96875 -2.828125 C 2.671875 -2.828125 2.96875 -2.265625 2.96875 -1.4375 C 2.96875 -0.296875 2.390625 -0.046875 2.03125 -0.046875 C 1.671875 -0.046875 1.03125 -0.1875 0.734375 -0.6875 C 1.03125 -0.640625 1.296875 -0.828125 1.296875 -1.15625 C 1.296875 -1.453125 1.0625 -1.625 0.828125 -1.625 C 0.625 -1.625 0.359375 -1.5 0.359375 -1.140625 C 0.359375 -0.375 1.140625 0.1875 2.046875 0.1875 C 3.078125 0.1875 3.84375 -0.578125 3.84375 -1.4375 Z M 3.84375 -1.4375 "/>
</g>
</g>
</defs>
<rect x="-60" y="-45" width="720" height="540" fill="rgb(100%, 100%, 100%)" fill-opacity="1"/>
<path fill-rule="nonzero" fill="rgb(100%, 100%, 100%)" fill-opacity="1" d="M 43 396 L 584 396 L 584 16 L 43 16 Z M 43 396 "/>
<path fill="none" stroke-width="1" stroke-linecap="butt" stroke-linejoin="miter" stroke="rgb(0%, 0%, 0%)" stroke-opacity="0.12" stroke-miterlimit="1.154701" d="M 51.34375 396 L 51.34375 16 "/>
<path fill="none" stroke-width="1" stroke-linecap="butt" stroke-linejoin="miter" stroke="rgb(0%, 0%, 0%)" stroke-opacity="0.12" stroke-miterlimit="1.154701" d="M 313.5 396 L 313.5 16 "/>
<path fill="none" stroke-width="1" stroke-linecap="butt" stroke-linejoin="miter" stroke="rgb(0%, 0%, 0%)" stroke-opacity="0.12" stroke-miterlimit="1.154701" d="M 575.65625 396 L 575.65625 16 "/>
<path fill="none" stroke-width="1" stroke-linecap="butt" stroke-linejoin="miter" stroke="rgb(0%, 0%, 0%)" stroke-opacity="0.12" stroke-miterlimit="1.154701" d="M 43 324.953125 L 584 324.953125 "/>
<path fill="none" stroke-width="1" stroke-linecap="butt" stroke-linejoin="miter" stroke="rgb(0%, 0%, 0%)" stroke-opacity="0.12" stroke-miterlimit="1.154701" d="M 43 216.214844 L 584 216.214844 "/>
<path fill="none" stroke-width="1" stroke-linecap="butt" stroke-linejoin="miter" stroke="rgb(0%, 0%, 0%)" stroke-opacity="0.12" stroke-miterlimit="1.154701" d="M 43 107.476562 L 584 107.476562 "/>
<g fill="rgb(0%, 0%, 0%)" fill-opacity="1">
<use xlink:href="#glyph-0-0-e8ed3286" x="311.176025" y="432.283997"/>
</g>
<g fill="rgb(0%, 0%, 0%)" fill-opacity="1">
<use xlink:href="#glyph-1-0-e8ed3286" x="42.398663" y="415.283997"/>
</g>
<g fill="rgb(0%, 0%, 0%)" fill-opacity="1">
<use xlink:href="#glyph-1-1-e8ed3286" x="49.398655" y="415.283997"/>
</g>
<g fill="rgb(0%, 0%, 0%)" fill-opacity="1">
<use xlink:href="#glyph-2-0-e8ed3286" x="53.290665" y="415.283997"/>
</g>
<g fill="rgb(0%, 0%, 0%)" fill-opacity="1">
<use xlink:href="#glyph-3-0-e8ed3286" x="304.553986" y="415.283997"/>
</g>
<g fill="rgb(0%, 0%, 0%)" fill-opacity="1">
<use xlink:href="#glyph-4-0-e8ed3286" x="311.553986" y="415.283997"/>
</g>
<g fill="rgb(0%, 0%, 0%)" fill-opacity="1">
<use xlink:href="#glyph-4-1-e8ed3286" x="315.445984" y="415.283997"/>
</g>
<g fill="rgb(0%, 0%, 0%)" fill-opacity="1">
<use xlink:href="#glyph-3-1-e8ed3286" x="566.709351" y="415.283997"/>
</g>
<g fill="rgb(0%, 0%, 0%)" fill-opacity="1">
<use xlink:href="#glyph-3-2-e8ed3286" x="573.709351" y="415.283997"/>
</g>
<g fill="rgb(0%, 0%, 0%)" fill-opacity="1">
<use xlink:href="#glyph-3-0-e8ed3286" x="577.601318" y="415.283997"/>
</g>
<g fill="rgb(0%, 0%, 0%)" fill-opacity="1">
<use xlink:href="#glyph-5-0-e8ed3286" x="15.108007" y="329.238953"/>
</g>
<g fill="rgb(0%, 0%, 0%)" fill-opacity="1">
<use xlink:href="#glyph-6-0-e8ed3286" x="25.999992" y="329.238953"/>
</g>
<g fill="rgb(0%, 0%, 0%)" fill-opacity="1">
<use xlink:href="#glyph-6-1-e8ed3286" x="25.999992" y="220.49942"/>
</g>
<g fill="rgb(0%, 0%, 0%)" fill-opacity="1">
<use xlink:href="#glyph-7-0-e8ed3286" x="25.999992" y="111.759857"/>
</g>
<path fill="none" stroke-width="1.5" stroke-linecap="butt" stroke-linejoin="miter" stroke="rgb(0%, 44.705883%, 69.803923%)" stroke-opacity="1" stroke-miterlimit="2" d="M 51.34375 324.953125 L 52.019531 324.953125 L 52.699219 324.941406 L 53.375 324.921875 L 54.050781 324.894531 L 58.015625 324.589844 L 61.976562 324.027344 L 65.941406 323.210938 L 69.902344 322.140625 L 73.589844 320.917969 L 77.277344 319.480469 L 82.21875 317.21875 L 87.160156 314.585938 L 91.242188 312.128906 L 95.328125 309.433594 L 99.125 306.707031 L 102.921875 303.785156 L 107.6875 299.839844 L 112.457031 295.597656 L 116.730469 291.554688 L 121.007812 287.292969 L 125.902344 282.164062 L 130.796875 276.78125 L 134.457031 272.601562 L 138.113281 268.300781 L 147.472656 256.785156 L 156.015625 245.722656 L 165.734375 232.640625 L 173.441406 221.996094 L 183.015625 208.582031 L 190.347656 198.257812 L 200.6875 183.78125 L 208.414062 173.132812 L 217.199219 161.320312 L 225.898438 150.039062 L 235.46875 138.242188 L 242.78125 129.746094 L 247.394531 124.644531 L 252.007812 119.761719 L 256.273438 115.445312 L 260.542969 111.339844 L 264.941406 107.324219 L 269.34375 103.550781 L 273.800781 99.976562 L 278.261719 96.660156 L 282.917969 93.484375 L 287.578125 90.605469 L 291.246094 88.554688 L 294.914062 86.695312 L 299.09375 84.8125 L 303.269531 83.1875 L 307.449219 81.816406 L 311.625 80.707031 L 312.09375 80.597656 L 312.5625 80.492188 L 313.5 80.289062 "/>
<path fill="none" stroke-width="1.5" stroke-linecap="butt" stroke-linejoin="miter" stroke="rgb(0%, 44.705883%, 69.803923%)" stroke-opacity="1" stroke-miterlimit="2" d="M 313.5 352.140625 L 314.175781 352.277344 L 314.851562 352.40625 L 315.53125 352.53125 L 316.207031 352.648438 L 320.167969 353.195312 L 324.132812 353.507812 L 328.09375 353.59375 L 332.058594 353.445312 L 335.746094 353.109375 L 339.429688 352.574219 L 344.375 351.5625 L 349.316406 350.210938 L 353.398438 348.851562 L 357.484375 347.269531 L 361.28125 345.609375 L 365.078125 343.769531 L 369.84375 341.222656 L 374.609375 338.410156 L 378.886719 335.683594 L 383.164062 332.765625 L 388.058594 329.210938 L 392.953125 325.4375 L 396.609375 322.488281 L 400.269531 319.4375 L 404.949219 315.394531 L 409.628906 311.214844 L 413.898438 307.292969 L 418.167969 303.28125 L 427.890625 293.898438 L 435.597656 286.296875 L 445.171875 276.792969 L 452.503906 269.558594 L 462.84375 259.585938 L 470.566406 252.410156 L 474.960938 248.476562 L 479.351562 244.664062 L 483.703125 241.023438 L 488.054688 237.527344 L 492.839844 233.875 L 497.625 230.433594 L 501.28125 227.960938 L 504.9375 225.628906 L 509.550781 222.898438 L 514.164062 220.417969 L 518.429688 218.355469 L 522.695312 216.53125 L 527.097656 214.902344 L 531.496094 213.542969 L 535.957031 212.445312 L 540.417969 211.640625 L 545.074219 211.121094 L 549.734375 210.933594 L 553.402344 211.023438 L 557.070312 211.328125 L 561.246094 211.9375 L 565.425781 212.828125 L 569.601562 214.003906 L 573.78125 215.464844 L 574.71875 215.832031 L 575.65625 216.214844 "/>
<path fill="none" stroke-width="0.5" stroke-linecap="butt" stroke-linejoin="miter" stroke="rgb(90.196079%, 62.352943%, 0%)" stroke-opacity="1" stroke-miterlimit="2" d="M 51.867188 310.503906 L 52.394531 299.746094 L 52.917969 287.898438 L 53.441406 332.027344 L 53.964844 320.382812 L 54.492188 277.519531 L 55.015625 339.648438 L 55.539062 296.871094 L 56.0625 300.253906 L 56.585938 304.671875 L 57.113281 293.234375 L 57.636719 310.25 L 58.160156 331.71875 L 58.683594 306.390625 L 59.210938 267.65625 L 59.734375 326.148438 L 60.257812 324.109375 L 60.78125 289.871094 L 61.304688 306.3125 L 61.832031 312.261719 L 62.355469 304.847656 L 62.878906 315.769531 L 63.402344 293.074219 L 63.929688 322.6875 L 64.453125 333.3125 L 64.976562 314.351562 L 65.5 327.167969 L 66.023438 323.65625 L 66.550781 305.847656 L 67.074219 290.691406 L 67.597656 299.394531 L 68.121094 338.375 L 68.648438 304.070312 L 69.171875 280.242188 L 69.695312 275.625 L 70.21875 342.800781 L 70.746094 289.039062 L 71.269531 311.113281 L 71.792969 324.855469 L 72.316406 321.070312 L 72.839844 293.839844 L 73.367188 335.09375 L 73.890625 329.867188 L 74.414062 330.101562 L 74.9375 315.894531 L 75.464844 321.574219 L 75.988281 309.308594 L 76.511719 301.910156 L 77.035156 328.097656 L 77.558594 304.132812 L 78.085938 317.589844 L 78.609375 286.632812 L 79.132812 335.429688 L 79.65625 291.453125 L 80.183594 302.847656 L 80.707031 287.097656 L 81.230469 296.417969 L 81.753906 310.394531 L 82.277344 311.851562 L 82.804688 307.234375 L 83.328125 303.042969 L 83.851562 270.539062 L 84.375 295.042969 L 84.902344 282.59375 L 85.425781 321.679688 L 85.949219 286.101562 L 86.472656 310.375 L 86.996094 276.242188 L 87.523438 296.472656 L 88.046875 288.050781 L 88.570312 313.75 L 89.09375 308.640625 L 89.621094 308.464844 L 90.144531 312.988281 L 90.667969 298.304688 L 91.191406 292.410156 L 91.714844 328.566406 L 92.242188 294.839844 L 92.765625 295.933594 L 93.289062 316.570312 L 93.8125 293.265625 L 94.339844 309.796875 L 94.863281 305.136719 L 95.386719 297.074219 L 95.910156 303.425781 L 96.433594 298.324219 L 96.960938 302.476562 L 97.484375 290.074219 L 98.007812 286.824219 L 98.53125 291.679688 L 99.058594 277.683594 L 99.582031 253.332031 L 100.105469 295.460938 L 100.628906 275.585938 L 101.152344 299.277344 L 101.679688 312.5 L 102.203125 279.152344 L 102.726562 291.632812 L 103.25 287.128906 L 103.777344 288.449219 L 104.300781 289.828125 L 104.824219 305.980469 L 105.347656 269.113281 L 105.871094 261.453125 L 106.398438 328.480469 L 106.921875 300.882812 L 107.445312 271.382812 L 107.96875 325.128906 L 108.496094 301.226562 L 109.019531 271.371094 L 109.542969 284.128906 L 110.066406 298.230469 L 110.589844 267.703125 L 111.117188 298.253906 L 111.640625 312.683594 L 112.164062 223.855469 L 112.6875 287.136719 L 113.214844 279.425781 L 113.738281 225.785156 L 114.261719 290.863281 L 114.785156 283.542969 L 115.3125 270.539062 L 115.835938 256.871094 L 116.359375 301.878906 L 116.882812 269.542969 L 117.40625 304.238281 L 117.933594 273.519531 L 118.457031 278.992188 L 118.980469 283.628906 L 119.503906 259.484375 L 120.03125 288.742188 L 120.554688 262.765625 L 121.078125 264.558594 L 121.601562 286.230469 L 122.125 253.519531 L 122.652344 272.65625 L 123.175781 239.472656 L 123.699219 297.378906 L 124.222656 275.558594 L 124.75 278.65625 L 125.273438 287.53125 L 125.796875 278.769531 L 126.320312 261.472656 L 126.84375 237.902344 L 127.371094 279.488281 L 127.894531 273.359375 L 128.417969 276.53125 L 128.941406 277.28125 L 129.46875 265.777344 L 129.992188 283.730469 L 130.515625 261.4375 L 131.039062 295.542969 L 131.5625 267.621094 L 132.089844 296.613281 L 132.613281 293.089844 L 133.136719 243.480469 L 133.660156 243.128906 L 134.1875 252.019531 L 134.710938 265.621094 L 135.234375 247.34375 L 135.757812 285.8125 L 136.28125 254.253906 L 136.808594 248.972656 L 137.332031 275.625 L 137.855469 269.722656 L 138.378906 242.039062 L 138.90625 223.304688 L 139.429688 282.167969 L 139.953125 247.054688 L 140.476562 245.253906 L 141 253.140625 L 141.527344 227.601562 L 142.050781 247.59375 L 142.574219 216.664062 L 143.097656 241.664062 L 143.625 255.71875 L 144.148438 269.738281 L 144.671875 272.410156 L 145.195312 260.566406 L 145.71875 250 L 146.246094 250.730469 L 146.769531 251.773438 L 147.292969 239.574219 L 147.816406 238.492188 L 148.34375 252.886719 L 148.867188 248.972656 L 149.390625 233.058594 L 149.914062 220.539062 L 150.4375 214.71875 L 150.964844 222.667969 L 151.488281 232.304688 L 152.011719 256.328125 L 152.535156 275.355469 L 153.0625 252.75 L 153.585938 257.234375 L 154.109375 222.902344 L 154.632812 235.847656 L 155.15625 263.167969 L 155.683594 195.816406 L 156.207031 237.765625 L 156.730469 222.863281 L 157.253906 250.007812 L 157.78125 257.0625 L 158.304688 249.035156 L 158.828125 240.144531 L 159.351562 241.632812 L 159.878906 246.886719 L 160.402344 241.042969 L 160.925781 200.476562 L 161.449219 233.511719 L 161.972656 237.929688 L 162.5 233.964844 L 163.023438 248.121094 L 163.546875 233.144531 L 164.070312 225.386719 L 164.597656 214.917969 L 165.121094 194.085938 L 165.644531 229.890625 L 166.167969 208.535156 L 166.691406 236.863281 L 167.21875 251.875 L 167.742188 230.382812 L 168.265625 223.105469 L 168.789062 200.207031 L 169.316406 188.574219 L 169.839844 214.964844 L 170.363281 205.816406 L 170.886719 216.597656 L 171.410156 197.785156 L 171.9375 221.820312 L 172.460938 216.191406 L 172.984375 196.550781 L 173.507812 210.171875 L 174.035156 213.15625 L 174.558594 207.484375 L 175.082031 243.546875 L 175.605469 200.441406 L 176.128906 226.101562 L 176.65625 206.265625 L 177.179688 231.6875 L 177.703125 213.710938 L 178.226562 176.375 L 178.753906 167.660156 L 179.277344 200.835938 L 179.800781 166.609375 L 180.324219 194.804688 L 180.847656 188.980469 L 181.375 206.140625 L 181.898438 228.417969 L 182.421875 178.121094 L 182.945312 182.304688 L 183.472656 213.792969 L 183.996094 199.496094 L 184.519531 214.925781 L 185.042969 229.550781 L 185.566406 207.519531 L 186.09375 170.1875 L 186.617188 176.046875 L 187.140625 193.222656 L 187.664062 161.949219 L 188.191406 189.0625 L 188.714844 211.667969 L 189.238281 187.316406 L 189.761719 185.339844 L 190.285156 195.644531 L 190.8125 165.871094 L 191.335938 169.433594 L 191.859375 172.066406 L 192.382812 227.277344 L 192.910156 195.828125 L 193.433594 195.980469 L 193.957031 180.929688 L 194.480469 197.472656 L 195.003906 161.675781 L 195.53125 162.675781 L 196.054688 174.835938 L 196.578125 186.761719 L 197.101562 171.703125 L 197.628906 200.222656 L 198.152344 209.066406 L 198.675781 195.238281 L 199.199219 154.234375 L 199.722656 213.382812 L 200.25 183.285156 L 200.773438 176.9375 L 201.296875 167.390625 L 201.820312 196.445312 L 202.347656 179.976562 L 202.871094 181.222656 L 203.394531 165.910156 L 203.917969 167.324219 L 204.445312 185.90625 L 204.96875 121.855469 L 205.492188 212.441406 L 206.015625 184.753906 L 206.539062 200.132812 L 207.066406 161.046875 L 207.589844 182.007812 L 208.113281 163.191406 L 208.636719 180.3125 L 209.164062 183.738281 L 209.6875 177.550781 L 210.210938 180.125 L 210.734375 158.285156 L 211.257812 163.121094 L 211.785156 139.125 L 212.308594 154.140625 L 212.832031 163.871094 L 213.355469 163.710938 L 213.882812 129.332031 L 214.40625 180.414062 L 214.929688 151.484375 L 215.453125 144.652344 L 215.976562 144.898438 L 216.503906 149.257812 L 217.027344 151.53125 L 217.550781 165.894531 L 218.074219 158.398438 L 218.601562 168.207031 L 219.125 161.582031 L 219.648438 160.265625 L 220.171875 117.234375 L 220.695312 166.15625 L 221.222656 113.480469 L 221.746094 184.03125 L 222.269531 120.949219 L 222.792969 102.710938 L 223.320312 162.335938 L 223.84375 204.03125 L 224.367188 177.589844 L 224.890625 164.6875 L 225.414062 123.738281 L 225.941406 137.484375 L 226.464844 134.101562 L 226.988281 149.050781 L 227.511719 101.996094 L 228.039062 154.191406 L 228.5625 145.867188 L 229.085938 137.820312 L 229.609375 172.671875 L 230.132812 126.113281 L 230.660156 123.496094 L 231.183594 162.371094 L 231.707031 138.214844 L 232.230469 113.164062 L 232.757812 160.386719 L 233.28125 106.367188 L 233.804688 121.382812 L 234.328125 127.300781 L 234.851562 113.03125 L 235.378906 148.554688 L 235.902344 111.371094 L 236.425781 125.757812 L 236.949219 137.175781 L 237.476562 82.960938 L 238 133.238281 L 238.523438 126.460938 L 239.046875 99.933594 L 239.570312 89.96875 L 240.097656 160.179688 L 240.621094 129.628906 L 241.144531 125.242188 L 241.667969 132.128906 L 242.195312 161.5625 L 242.71875 168.132812 L 243.242188 142.375 L 243.765625 92.402344 L 244.289062 120.40625 L 244.816406 147.839844 L 245.339844 89.644531 L 245.863281 125.613281 L 246.386719 117.28125 L 246.914062 102.363281 L 247.4375 114.855469 L 247.960938 142.128906 L 248.484375 131.265625 L 249.011719 84.152344 L 249.535156 107.058594 L 250.058594 91.140625 L 250.582031 104.957031 L 251.105469 97.484375 L 251.632812 107.789062 L 252.15625 128 L 252.679688 88.164062 L 253.203125 100.691406 L 253.730469 105.707031 L 254.253906 125.980469 L 254.777344 120.144531 L 255.300781 119.933594 L 255.824219 110.882812 L 256.351562 103.757812 L 256.875 136.273438 L 257.398438 113.273438 L 257.921875 108.429688 L 258.449219 111.152344 L 258.972656 95.492188 L 259.496094 129.1875 L 260.019531 108.636719 L 260.542969 121.054688 L 261.070312 104.015625 L 261.59375 119.050781 L 262.117188 95.769531 L 262.640625 103.625 L 263.167969 151.019531 L 263.691406 108.167969 L 264.214844 128.308594 L 264.738281 77.976562 L 265.261719 110.226562 L 265.789062 66.617188 L 266.3125 99.375 L 266.835938 103.429688 L 267.359375 86.027344 L 267.886719 87.246094 L 268.410156 98.121094 L 268.933594 99.324219 L 269.457031 100.597656 L 269.980469 110.683594 L 270.507812 112.582031 L 271.03125 104.1875 L 271.554688 129.027344 L 272.078125 126.84375 L 272.605469 109.765625 L 273.128906 63.816406 L 273.652344 103.945312 L 274.175781 104.042969 L 274.699219 112.800781 L 275.226562 101.835938 L 275.75 76.714844 L 276.273438 91.199219 L 276.796875 96.628906 L 277.324219 96.910156 L 277.847656 119.589844 L 278.371094 58.875 L 278.894531 96.707031 L 279.417969 113.429688 L 279.945312 117.8125 L 280.46875 71.664062 L 280.992188 111.054688 L 281.515625 63.214844 L 282.042969 82.527344 L 282.566406 93.890625 L 283.089844 122.867188 L 283.613281 101.511719 L 284.136719 93.355469 L 284.664062 121.738281 L 285.1875 102.367188 L 285.710938 95.511719 L 286.234375 87.566406 L 286.761719 86.484375 L 287.285156 109.675781 L 287.808594 81.773438 L 288.332031 96.246094 L 288.855469 33.273438 L 289.382812 77.046875 L 289.90625 98.105469 L 290.429688 125.011719 L 290.953125 129.707031 L 291.480469 95.554688 L 292.003906 77.058594 L 292.527344 92.984375 L 293.050781 89.386719 L 293.578125 101.824219 L 294.101562 92.660156 L 294.625 103.113281 L 295.148438 99.390625 L 295.671875 78.304688 L 296.199219 103.109375 L 296.722656 72.144531 L 297.246094 114.328125 L 297.769531 69.097656 L 298.296875 112.796875 L 298.820312 87.113281 L 299.34375 82.070312 L 299.867188 130.046875 L 300.390625 61.3125 L 300.917969 102.488281 L 301.441406 130.125 L 301.964844 114.136719 L 302.488281 123.050781 L 303.015625 86.273438 L 303.539062 139.539062 L 304.0625 77.175781 L 304.585938 112.902344 L 305.109375 105.539062 L 305.636719 84.511719 L 306.160156 106.402344 L 306.683594 92.167969 L 307.207031 106.246094 L 307.734375 127.5 L 308.257812 135.214844 L 308.78125 134.800781 L 309.304688 136.601562 L 309.828125 140.921875 L 310.355469 144.128906 L 310.878906 130.574219 L 311.402344 147.15625 L 311.925781 140.511719 L 312.453125 137.238281 L 312.976562 153.09375 "/>
<path fill="none" stroke-width="0.5" stroke-linecap="butt" stroke-linejoin="miter" stroke="rgb(90.196079%, 62.352943%, 0%)" stroke-opacity="1" stroke-miterlimit="2" d="M 314.023438 229.738281 L 314.546875 239.574219 L 315.074219 244.480469 L 315.597656 246.3125 L 316.121094 263.671875 L 316.644531 276.738281 L 317.171875 258.792969 L 317.695312 297.769531 L 318.21875 276.667969 L 318.742188 260.21875 L 319.265625 273.980469 L 319.792969 309.765625 L 320.316406 297.996094 L 320.839844 298.425781 L 321.363281 298.839844 L 321.890625 310.75 L 322.414062 319.136719 L 322.9375 318.871094 L 323.460938 312.605469 L 323.984375 309.214844 L 324.511719 334.894531 L 325.035156 309.867188 L 325.558594 349.53125 L 326.082031 337.65625 L 326.609375 304.199219 L 327.132812 321.402344 L 327.65625 341.351562 L 328.179688 322.183594 L 328.703125 308.132812 L 329.230469 294.253906 L 329.753906 306.566406 L 330.277344 352.707031 L 330.800781 313.890625 L 331.328125 352.53125 L 331.851562 335.097656 L 332.375 304.261719 L 332.898438 339.101562 L 333.421875 316.550781 L 333.949219 349.554688 L 334.472656 307.035156 L 334.996094 315.054688 L 335.519531 314.292969 L 336.046875 340.402344 L 336.570312 308.410156 L 337.09375 305.132812 L 337.617188 330.847656 L 338.144531 355.394531 L 338.667969 303.046875 L 339.191406 328.058594 L 339.714844 321.292969 L 340.238281 330.46875 L 340.765625 302.1875 L 341.289062 346.226562 L 341.8125 345.691406 L 342.335938 352.316406 L 342.863281 297.582031 L 343.386719 333.324219 L 343.910156 330.183594 L 344.433594 331.847656 L 344.957031 311.6875 L 345.484375 305.351562 L 346.007812 378.726562 L 346.53125 328.117188 L 347.054688 326.347656 L 347.582031 355.109375 L 348.105469 310.253906 L 348.628906 306.203125 L 349.152344 354.121094 L 349.675781 322.632812 L 350.203125 367.0625 L 350.726562 334.417969 L 351.25 348.421875 L 351.773438 326.421875 L 352.300781 340.273438 L 352.824219 343.265625 L 353.347656 330.582031 L 353.871094 299.269531 L 354.394531 337.164062 L 354.921875 373.058594 L 355.445312 343.433594 L 355.96875 349.175781 L 356.492188 323.988281 L 357.019531 321.515625 L 357.542969 361.28125 L 358.066406 319.0625 L 358.589844 375.191406 L 359.113281 340.550781 L 359.640625 312.027344 L 360.164062 347.949219 L 360.6875 340.699219 L 361.210938 323.722656 L 361.738281 312.375 L 362.261719 284.257812 L 362.785156 315.773438 L 363.308594 314.894531 L 363.832031 332.796875 L 364.359375 334.5 L 364.882812 320.894531 L 365.40625 348.519531 L 365.929688 338.308594 L 366.457031 310.199219 L 366.980469 311.925781 L 367.503906 321.546875 L 368.027344 338.773438 L 368.550781 304.820312 L 369.078125 315.878906 L 369.601562 353.75 L 370.125 357.484375 L 370.648438 317.734375 L 371.175781 335.984375 L 371.699219 328.789062 L 372.222656 358.613281 L 372.746094 323.457031 L 373.269531 311.691406 L 373.796875 300.707031 L 374.320312 331.386719 L 374.84375 284.40625 L 375.367188 306.144531 L 375.894531 326.367188 L 376.417969 290.28125 L 376.941406 348.859375 L 377.464844 335.113281 L 377.988281 301.851562 L 378.515625 320.683594 L 379.039062 355.847656 L 379.5625 321.257812 L 380.085938 331.417969 L 380.613281 315.265625 L 381.136719 325.648438 L 381.660156 310.320312 L 382.183594 336.679688 L 382.710938 293.945312 L 383.234375 322.632812 L 383.757812 314.054688 L 384.28125 324.875 L 384.804688 313.855469 L 385.332031 311.140625 L 385.855469 285.835938 L 386.378906 339.980469 L 386.902344 356.582031 L 387.429688 286.441406 L 387.953125 319.753906 L 388.476562 268.898438 L 389 327.597656 L 389.523438 348.203125 L 390.050781 318 L 390.574219 314.390625 L 391.097656 334.707031 L 391.621094 282.949219 L 392.148438 326.570312 L 392.671875 309.078125 L 393.195312 323.96875 L 393.71875 304.597656 L 394.242188 348.949219 L 394.769531 312.546875 L 395.292969 335.570312 L 395.816406 323.617188 L 396.339844 308.625 L 396.867188 338.085938 L 397.390625 318.417969 L 397.914062 293.25 L 398.4375 298.410156 L 398.960938 313.542969 L 399.488281 295.5625 L 400.011719 279.621094 L 400.535156 298.566406 L 401.058594 292.835938 L 401.585938 325.28125 L 402.109375 320.996094 L 402.632812 315 L 403.15625 312.976562 L 403.679688 310.269531 L 404.207031 328.25 L 404.730469 295.984375 L 405.253906 326.023438 L 405.777344 279.121094 L 406.304688 308.46875 L 406.828125 303.09375 L 407.351562 312.476562 L 407.875 277.589844 L 408.398438 289.683594 L 408.925781 297.191406 L 409.449219 330.878906 L 409.972656 307.664062 L 410.496094 301.992188 L 411.023438 273.054688 L 411.546875 293.359375 L 412.070312 342.292969 L 412.59375 305.488281 L 413.117188 269.839844 L 413.644531 326.089844 L 414.167969 323.339844 L 414.691406 314.574219 L 415.214844 282.007812 L 415.742188 269.691406 L 416.265625 300.105469 L 416.789062 295.253906 L 417.3125 292.671875 L 417.835938 291.695312 L 418.363281 294.867188 L 418.886719 295.007812 L 419.410156 282.347656 L 419.933594 287.703125 L 420.460938 274.9375 L 420.984375 306.710938 L 421.507812 276.167969 L 422.03125 295.015625 L 422.554688 256.125 L 423.082031 275.175781 L 423.605469 274.746094 L 424.128906 265.542969 L 424.652344 287.609375 L 425.179688 281.417969 L 425.703125 292.800781 L 426.226562 314.945312 L 426.75 280.699219 L 427.277344 285.777344 L 427.800781 282.871094 L 428.324219 276.46875 L 428.847656 273.855469 L 429.371094 250.671875 L 429.898438 288.878906 L 430.421875 286.265625 L 430.945312 291.632812 L 431.46875 269.992188 L 431.996094 299.496094 L 432.519531 277.640625 L 433.042969 265.535156 L 433.566406 247.914062 L 434.089844 270.058594 L 434.617188 252.21875 L 435.140625 282.128906 L 435.664062 252.972656 L 436.1875 279.476562 L 436.714844 259.152344 L 437.238281 292.210938 L 437.761719 255.476562 L 438.285156 256.410156 L 438.808594 276.460938 L 439.335938 262.84375 L 439.859375 230.851562 L 440.382812 237.496094 L 440.90625 271.242188 L 441.433594 303.949219 L 441.957031 269.820312 L 442.480469 272.984375 L 443.003906 262.949219 L 443.527344 275.769531 L 444.054688 255.910156 L 444.578125 277.414062 L 445.101562 268.652344 L 445.625 231.050781 L 446.152344 275.835938 L 446.675781 260.371094 L 447.199219 266.222656 L 447.722656 269.105469 L 448.246094 242.792969 L 448.773438 239.722656 L 449.296875 241.425781 L 449.820312 212.96875 L 450.34375 263.917969 L 450.871094 264.222656 L 451.394531 261.457031 L 451.917969 301.804688 L 452.441406 263.621094 L 452.964844 244.515625 L 453.492188 284.113281 L 454.015625 263.628906 L 454.539062 231.019531 L 455.0625 241.734375 L 455.589844 248.316406 L 456.113281 290.636719 L 456.636719 250.273438 L 457.160156 251.113281 L 457.683594 222.734375 L 458.210938 229.984375 L 458.734375 262.332031 L 459.257812 277.339844 L 459.78125 244.808594 L 460.308594 289.253906 L 460.832031 252.011719 L 461.355469 270.253906 L 461.878906 238.628906 L 462.402344 232.535156 L 462.929688 246.246094 L 463.453125 231.847656 L 463.976562 233.828125 L 464.5 258.5625 L 465.027344 263.136719 L 465.550781 234.898438 L 466.074219 271.183594 L 466.597656 227.175781 L 467.121094 251.632812 L 467.648438 209.828125 L 468.171875 267.554688 L 468.695312 253.457031 L 469.21875 253.457031 L 469.746094 233.644531 L 470.269531 238.433594 L 470.792969 264.589844 L 471.316406 241.773438 L 471.84375 269.417969 L 472.367188 209.21875 L 472.890625 214.40625 L 473.414062 194.820312 L 473.9375 240.75 L 474.464844 250.464844 L 474.988281 232.242188 L 475.511719 250.058594 L 476.035156 248.804688 L 476.5625 260.789062 L 477.085938 225.164062 L 477.609375 250.117188 L 478.132812 225.253906 L 478.65625 231.378906 L 479.183594 216.308594 L 479.707031 229.9375 L 480.230469 213.992188 L 480.753906 273.855469 L 481.28125 245.648438 L 481.804688 250.945312 L 482.328125 225.074219 L 482.851562 211.097656 L 483.375 212.585938 L 483.902344 244.984375 L 484.425781 231.132812 L 484.949219 229.34375 L 485.472656 244.503906 L 486 267.15625 L 486.523438 230.503906 L 487.046875 277.4375 L 487.570312 241.683594 L 488.09375 224.746094 L 488.621094 201.132812 L 489.144531 237.339844 L 489.667969 220.050781 L 490.191406 222.148438 L 490.71875 226.6875 L 491.242188 271.84375 L 491.765625 211.863281 L 492.289062 218.976562 L 492.8125 206.027344 L 493.339844 214.46875 L 493.863281 213.253906 L 494.386719 226.617188 L 494.910156 225.445312 L 495.4375 210.511719 L 495.960938 214.128906 L 496.484375 239.234375 L 497.007812 207.386719 L 497.53125 238.621094 L 498.058594 234.082031 L 498.582031 235.988281 L 499.105469 222.566406 L 499.628906 229.515625 L 500.15625 228.0625 L 500.679688 234.558594 L 501.203125 229.8125 L 501.726562 226.941406 L 502.25 206.710938 L 502.777344 205.507812 L 503.300781 193.007812 L 503.824219 227.625 L 504.347656 198.480469 L 504.875 215.136719 L 505.398438 206.460938 L 505.921875 194.324219 L 506.445312 241.46875 L 506.96875 211.601562 L 507.496094 211.898438 L 508.019531 209.300781 L 508.542969 180.480469 L 509.066406 254.945312 L 509.59375 207.9375 L 510.117188 201.179688 L 510.640625 246.273438 L 511.164062 220.714844 L 511.6875 194.996094 L 512.214844 201.566406 L 512.738281 211.070312 L 513.261719 200.007812 L 513.785156 199.542969 L 514.3125 182.109375 L 514.835938 234.59375 L 515.359375 187.648438 L 515.882812 199.90625 L 516.410156 193.769531 L 516.933594 170.4375 L 517.457031 214.539062 L 517.980469 220.613281 L 518.503906 209.238281 L 519.03125 196.902344 L 519.554688 244.203125 L 520.078125 207.617188 L 520.601562 188.425781 L 521.128906 210.160156 L 521.652344 224.96875 L 522.175781 210.503906 L 522.699219 230.316406 L 523.222656 259.609375 L 523.75 230.867188 L 524.273438 214.613281 L 524.796875 224.550781 L 525.320312 224.023438 L 525.847656 172.222656 L 526.371094 181.382812 L 526.894531 195.269531 L 527.417969 227.839844 L 527.941406 194.894531 L 528.46875 194.9375 L 528.992188 212.035156 L 529.515625 252.671875 L 530.039062 244.789062 L 530.566406 220.425781 L 531.089844 219.449219 L 531.613281 219.832031 L 532.136719 190.523438 L 532.660156 171.214844 L 533.1875 218.730469 L 533.710938 199.140625 L 534.234375 240.601562 L 534.757812 204.445312 L 535.285156 213.578125 L 535.808594 252.570312 L 536.332031 211.691406 L 536.855469 203.515625 L 537.378906 196.542969 L 537.90625 198.394531 L 538.429688 174.578125 L 538.953125 260.304688 L 539.476562 225.050781 L 540.003906 212.359375 L 540.527344 216.210938 L 541.050781 208.253906 L 541.574219 215.96875 L 542.097656 213.550781 L 542.625 197.800781 L 543.148438 236.484375 L 543.671875 223.40625 L 544.195312 211.300781 L 544.722656 182.65625 L 545.246094 242.9375 L 545.769531 187.847656 L 546.292969 173.484375 L 546.816406 239.050781 L 547.34375 212.371094 L 547.867188 211.792969 L 548.390625 215.84375 L 548.914062 192.449219 L 549.441406 203.945312 L 549.964844 174.683594 L 550.488281 226.890625 L 551.011719 224.898438 L 551.535156 206.84375 L 552.0625 216.769531 L 552.585938 197.175781 L 553.109375 220.761719 L 553.632812 240.589844 L 554.160156 229.207031 L 554.683594 201.878906 L 555.207031 207.6875 L 555.730469 223.691406 L 556.257812 219.636719 L 556.78125 197.535156 L 557.304688 145.535156 L 557.828125 196.644531 L 558.351562 203.628906 L 558.878906 216.015625 L 559.402344 182.292969 L 559.925781 197.511719 L 560.449219 185.171875 L 560.976562 164.609375 L 561.5 197.242188 L 562.023438 203.25 L 562.546875 211.742188 L 563.070312 213.816406 L 563.597656 206.277344 L 564.121094 202.902344 L 564.644531 186.882812 L 565.167969 204.234375 L 565.695312 221.304688 L 566.21875 197.214844 L 566.742188 191.363281 L 567.265625 238.664062 L 567.789062 205.269531 L 568.316406 209.765625 L 568.839844 237.367188 L 569.363281 232.273438 L 569.886719 236.898438 L 570.414062 199.808594 L 570.9375 218.007812 L 571.460938 225.773438 L 571.984375 223.164062 L 572.507812 220.53125 L 573.035156 222.949219 L 573.558594 227.316406 L 574.082031 204.125 L 574.605469 199.835938 L 575.132812 185.574219 L 575.65625 219.710938 "/>
<path fill="none" stroke-width="1.5" stroke-linecap="butt" stroke-linejoin="miter" stroke="rgb(0%, 61.960787%, 45.09804%)" stroke-opacity="1" stroke-miterlimit="2" d="M 51.867188 324.160156 L 52.394531 326.355469 L 52.917969 327.898438 L 53.441406 328.914062 L 53.964844 329.472656 L 54.492188 329.617188 L 55.015625 329.390625 L 55.539062 328.835938 L 56.0625 328.007812 L 56.585938 326.957031 L 57.113281 325.734375 L 57.636719 324.40625 L 58.160156 323.019531 L 58.683594 321.644531 L 59.210938 320.324219 L 59.734375 319.121094 L 60.257812 318.078125 L 60.78125 317.238281 L 61.304688 316.632812 L 61.832031 316.289062 L 62.355469 316.226562 L 62.878906 316.453125 L 63.402344 316.96875 L 63.929688 317.761719 L 64.453125 318.816406 L 64.976562 320.101562 L 65.5 321.585938 L 66.023438 323.226562 L 66.550781 324.980469 L 67.074219 326.796875 L 67.597656 328.621094 L 68.121094 330.402344 L 68.648438 332.09375 L 69.171875 333.636719 L 69.695312 334.988281 L 70.21875 336.105469 L 70.746094 336.957031 L 71.269531 337.511719 L 71.792969 337.75 L 72.316406 337.660156 L 72.839844 337.242188 L 73.367188 336.496094 L 73.890625 335.4375 L 74.414062 334.09375 L 74.9375 332.488281 L 75.464844 330.660156 L 75.988281 328.65625 L 76.511719 326.515625 L 77.035156 324.292969 L 77.558594 322.035156 L 78.085938 319.796875 L 78.609375 317.625 L 79.132812 315.570312 L 79.65625 313.671875 L 80.183594 311.972656 L 80.707031 310.5 L 81.230469 309.277344 L 81.753906 308.328125 L 82.277344 307.660156 L 82.804688 307.277344 L 83.328125 307.164062 L 83.851562 307.316406 L 84.375 307.710938 L 84.902344 308.3125 L 85.425781 309.097656 L 85.949219 310.027344 L 86.472656 311.058594 L 86.996094 312.148438 L 87.523438 313.25 L 88.046875 314.332031 L 88.570312 315.34375 L 89.09375 316.246094 L 89.621094 317.015625 L 90.144531 317.613281 L 90.667969 318.023438 L 91.191406 318.222656 L 91.714844 318.207031 L 92.242188 317.96875 L 92.765625 317.515625 L 93.289062 316.855469 L 93.8125 316.007812 L 94.339844 314.992188 L 94.863281 313.835938 L 95.386719 312.566406 L 95.910156 311.222656 L 96.433594 309.835938 L 96.960938 308.441406 L 97.484375 307.074219 L 98.007812 305.765625 L 98.53125 304.542969 L 99.058594 303.4375 L 99.582031 302.46875 L 100.105469 301.652344 L 100.628906 300.996094 L 101.152344 300.511719 L 101.679688 300.1875 L 102.203125 300.023438 L 102.726562 300.003906 L 103.25 300.109375 L 103.777344 300.320312 L 104.300781 300.605469 L 104.824219 300.9375 L 105.347656 301.28125 L 105.871094 301.613281 L 106.398438 301.890625 L 106.921875 302.09375 L 107.445312 302.183594 L 107.96875 302.144531 L 108.496094 301.949219 L 109.019531 301.582031 L 109.542969 301.039062 L 110.066406 300.308594 L 110.589844 299.394531 L 111.117188 298.304688 L 111.640625 297.054688 L 112.164062 295.660156 L 112.6875 294.144531 L 113.214844 292.535156 L 113.738281 290.871094 L 114.261719 289.179688 L 114.785156 287.5 L 115.3125 285.863281 L 115.835938 284.316406 L 116.359375 282.886719 L 116.882812 281.605469 L 117.40625 280.503906 L 117.933594 279.601562 L 118.457031 278.921875 L 118.980469 278.476562 L 119.503906 278.273438 L 120.03125 278.308594 L 120.554688 278.582031 L 121.078125 279.078125 L 121.601562 279.777344 L 122.125 280.65625 L 122.652344 281.6875 L 123.175781 282.835938 L 123.699219 284.070312 L 124.222656 285.34375 L 124.75 286.625 L 125.273438 287.867188 L 125.796875 289.03125 L 126.320312 290.082031 L 126.84375 290.984375 L 127.371094 291.707031 L 127.894531 292.21875 L 128.417969 292.5 L 128.941406 292.53125 L 129.46875 292.304688 L 129.992188 291.816406 L 130.515625 291.066406 L 131.039062 290.058594 L 131.5625 288.808594 L 132.089844 287.335938 L 132.613281 285.65625 L 133.136719 283.804688 L 133.660156 281.800781 L 134.1875 279.683594 L 134.710938 277.488281 L 135.234375 275.242188 L 135.757812 272.984375 L 136.28125 270.742188 L 136.808594 268.554688 L 137.332031 266.445312 L 137.855469 264.445312 L 138.378906 262.570312 L 138.90625 260.84375 L 139.429688 259.277344 L 139.953125 257.878906 L 140.476562 256.664062 L 141 255.625 L 141.527344 254.761719 L 142.050781 254.070312 L 142.574219 253.542969 L 143.097656 253.164062 L 143.625 252.921875 L 144.148438 252.800781 L 144.671875 252.78125 L 145.195312 252.84375 L 145.71875 252.976562 L 146.246094 253.160156 L 146.769531 253.375 L 147.292969 253.609375 L 147.816406 253.847656 L 148.34375 254.074219 L 148.867188 254.285156 L 149.390625 254.464844 L 149.914062 254.609375 L 150.4375 254.710938 L 150.964844 254.773438 L 151.488281 254.785156 L 152.011719 254.753906 L 152.535156 254.675781 L 153.0625 254.550781 L 153.585938 254.382812 L 154.109375 254.175781 L 154.632812 253.921875 L 155.15625 253.628906 L 155.683594 253.296875 L 156.207031 252.925781 L 156.730469 252.511719 L 157.253906 252.050781 L 157.78125 251.546875 L 158.304688 250.992188 L 158.828125 250.386719 L 159.351562 249.71875 L 159.878906 248.988281 L 160.402344 248.191406 L 160.925781 247.324219 L 161.449219 246.378906 L 161.972656 245.359375 L 162.5 244.257812 L 163.023438 243.074219 L 163.546875 241.808594 L 164.070312 240.46875 L 164.597656 239.058594 L 165.121094 237.578125 L 165.644531 236.039062 L 166.167969 234.453125 L 166.691406 232.828125 L 167.21875 231.175781 L 167.742188 229.507812 L 168.265625 227.84375 L 168.789062 226.195312 L 169.316406 224.578125 L 169.839844 223.003906 L 170.363281 221.488281 L 170.886719 220.042969 L 171.410156 218.679688 L 171.9375 217.40625 L 172.460938 216.234375 L 172.984375 215.164062 L 173.507812 214.203125 L 174.035156 213.351562 L 174.558594 212.601562 L 175.082031 211.957031 L 175.605469 211.402344 L 176.128906 210.933594 L 176.65625 210.539062 L 177.179688 210.203125 L 177.703125 209.917969 L 178.226562 209.660156 L 178.753906 209.414062 L 179.277344 209.171875 L 179.800781 208.910156 L 180.324219 208.617188 L 180.847656 208.277344 L 181.375 207.878906 L 181.898438 207.414062 L 182.421875 206.871094 L 182.945312 206.246094 L 183.472656 205.539062 L 183.996094 204.746094 L 184.519531 203.871094 L 185.042969 202.921875 L 185.566406 201.910156 L 186.09375 200.839844 L 186.617188 199.726562 L 187.140625 198.589844 L 187.664062 197.445312 L 188.191406 196.308594 L 188.714844 195.203125 L 189.238281 194.144531 L 189.761719 193.152344 L 190.285156 192.25 L 190.8125 191.445312 L 191.335938 190.761719 L 191.859375 190.203125 L 192.382812 189.785156 L 192.910156 189.515625 L 193.433594 189.394531 L 193.957031 189.421875 L 194.480469 189.59375 L 195.003906 189.902344 L 195.53125 190.339844 L 196.054688 190.882812 L 196.578125 191.519531 L 197.101562 192.226562 L 197.628906 192.976562 L 198.152344 193.75 L 198.675781 194.511719 L 199.199219 195.242188 L 199.722656 195.902344 L 200.25 196.46875 L 200.773438 196.914062 L 201.296875 197.214844 L 201.820312 197.339844 L 202.347656 197.277344 L 202.871094 197.003906 L 203.394531 196.511719 L 203.917969 195.789062 L 204.445312 194.832031 L 204.96875 193.644531 L 205.492188 192.230469 L 206.015625 190.605469 L 206.539062 188.78125 L 207.066406 186.785156 L 207.589844 184.632812 L 208.113281 182.359375 L 208.636719 180 L 209.164062 177.582031 L 209.6875 175.144531 L 210.210938 172.726562 L 210.734375 170.363281 L 211.257812 168.089844 L 211.785156 165.9375 L 212.308594 163.941406 L 212.832031 162.132812 L 213.355469 160.523438 L 213.882812 159.144531 L 214.40625 158 L 214.929688 157.101562 L 215.453125 156.445312 L 215.976562 156.03125 L 216.503906 155.847656 L 217.027344 155.871094 L 217.550781 156.085938 L 218.074219 156.460938 L 218.601562 156.964844 L 219.125 157.558594 L 219.648438 158.207031 L 220.171875 158.867188 L 220.695312 159.5 L 221.222656 160.066406 L 221.746094 160.527344 L 222.269531 160.847656 L 222.792969 160.992188 L 223.320312 160.941406 L 223.84375 160.664062 L 224.367188 160.148438 L 224.890625 159.386719 L 225.414062 158.375 L 225.941406 157.121094 L 226.464844 155.632812 L 226.988281 153.933594 L 227.511719 152.046875 L 228.039062 150.007812 L 228.5625 147.84375 L 229.085938 145.601562 L 229.609375 143.320312 L 230.132812 141.042969 L 230.660156 138.820312 L 231.183594 136.6875 L 231.707031 134.691406 L 232.230469 132.867188 L 232.757812 131.246094 L 233.28125 129.855469 L 233.804688 128.71875 L 234.328125 127.847656 L 234.851562 127.25 L 235.378906 126.917969 L 235.902344 126.847656 L 236.425781 127.015625 L 236.949219 127.402344 L 237.476562 127.96875 L 238 128.683594 L 238.523438 129.503906 L 239.046875 130.382812 L 239.570312 131.273438 L 240.097656 132.132812 L 240.621094 132.90625 L 241.144531 133.554688 L 241.667969 134.035156 L 242.195312 134.316406 L 242.71875 134.367188 L 243.242188 134.164062 L 243.765625 133.699219 L 244.289062 132.960938 L 244.816406 131.953125 L 245.339844 130.695312 L 245.863281 129.203125 L 246.386719 127.507812 L 246.914062 125.644531 L 247.4375 123.65625 L 247.960938 121.589844 L 248.484375 119.492188 L 249.011719 117.425781 L 249.535156 115.429688 L 250.058594 113.566406 L 250.582031 111.878906 L 251.105469 110.410156 L 251.632812 109.195312 L 252.15625 108.269531 L 252.679688 107.652344 L 253.203125 107.355469 L 253.730469 107.378906 L 254.253906 107.714844 L 254.777344 108.351562 L 255.300781 109.257812 L 255.824219 110.402344 L 256.351562 111.734375 L 256.875 113.210938 L 257.398438 114.777344 L 257.921875 116.375 L 258.449219 117.945312 L 258.972656 119.429688 L 259.496094 120.769531 L 260.019531 121.914062 L 260.542969 122.816406 L 261.070312 123.4375 L 261.59375 123.746094 L 262.117188 123.71875 L 262.640625 123.347656 L 263.167969 122.628906 L 263.691406 121.574219 L 264.214844 120.210938 L 264.738281 118.558594 L 265.261719 116.667969 L 265.789062 114.578125 L 266.3125 112.351562 L 266.835938 110.042969 L 267.359375 107.710938 L 267.886719 105.425781 L 268.410156 103.238281 L 268.933594 101.214844 L 269.457031 99.40625 L 269.980469 97.851562 L 270.507812 96.597656 L 271.03125 95.664062 L 271.554688 95.070312 L 272.078125 94.820312 L 272.605469 94.910156 L 273.128906 95.316406 L 273.652344 96.019531 L 274.175781 96.976562 L 274.699219 98.136719 L 275.226562 99.449219 L 275.75 100.851562 L 276.273438 102.285156 L 276.796875 103.679688 L 277.324219 104.972656 L 277.847656 106.105469 L 278.371094 107.019531 L 278.894531 107.671875 L 279.417969 108.011719 L 279.945312 108.023438 L 280.46875 107.679688 L 280.992188 106.976562 L 281.515625 105.921875 L 282.042969 104.535156 L 282.566406 102.847656 L 283.089844 100.902344 L 283.613281 98.75 L 284.136719 96.449219 L 284.664062 94.070312 L 285.1875 91.683594 L 285.710938 89.355469 L 286.234375 87.15625 L 286.761719 85.160156 L 287.285156 83.421875 L 287.808594 81.996094 L 288.332031 80.925781 L 288.855469 80.238281 L 289.382812 79.957031 L 289.90625 80.085938 L 290.429688 80.609375 L 290.953125 81.5 L 291.480469 82.726562 L 292.003906 84.226562 L 292.527344 85.941406 L 293.050781 87.800781 L 293.578125 89.714844 L 294.101562 91.601562 L 294.625 93.375 L 295.148438 94.949219 L 295.671875 96.242188 L 296.199219 97.179688 L 296.722656 97.695312 L 297.246094 97.742188 L 297.769531 97.28125 L 298.296875 96.296875 L 298.820312 94.789062 L 299.34375 92.78125 L 299.867188 90.3125 L 300.390625 87.441406 L 300.917969 84.25 L 301.441406 80.839844 L 301.964844 77.324219 L 302.488281 73.828125 L 303.015625 70.492188 L 303.539062 67.460938 L 304.0625 64.886719 L 304.585938 62.910156 L 305.109375 61.6875 L 305.636719 61.347656 L 306.160156 62.015625 L 306.683594 63.800781 L 307.207031 66.800781 L 307.734375 71.074219 L 308.257812 76.671875 L 308.78125 83.617188 L 309.304688 91.898438 L 309.828125 101.484375 L 310.355469 112.316406 L 310.878906 124.3125 L 311.402344 137.355469 L 311.925781 151.324219 L 312.453125 166.0625 L 312.976562 181.40625 L 313.5 197.179688 L 314.023438 213.195312 L 314.546875 229.261719 L 315.074219 245.191406 L 315.597656 260.796875 L 316.121094 275.90625 L 316.644531 290.347656 L 317.171875 303.972656 L 317.695312 316.648438 L 318.21875 328.265625 L 318.742188 338.734375 L 319.265625 347.992188 L 319.792969 356 L 320.316406 362.742188 L 320.839844 368.222656 L 321.363281 372.480469 L 321.890625 375.566406 L 322.414062 377.554688 L 322.9375 378.527344 L 323.460938 378.597656 L 323.984375 377.867188 L 324.511719 376.464844 L 325.035156 374.507812 L 325.558594 372.125 L 326.082031 369.4375 L 326.609375 366.558594 L 327.132812 363.597656 L 327.65625 360.652344 L 328.179688 357.8125 L 328.703125 355.144531 L 329.230469 352.707031 L 329.753906 350.542969 L 330.277344 348.683594 L 330.800781 347.140625 L 331.328125 345.917969 L 331.851562 345 L 332.375 344.367188 L 332.898438 343.988281 L 333.421875 343.832031 L 333.949219 343.851562 L 334.472656 344.007812 L 334.996094 344.253906 L 335.519531 344.550781 L 336.046875 344.863281 L 336.570312 345.152344 L 337.09375 345.394531 L 337.617188 345.566406 L 338.144531 345.660156 L 338.667969 345.667969 L 339.191406 345.59375 L 339.714844 345.449219 L 340.238281 345.25 L 340.765625 345.015625 L 341.289062 344.773438 L 341.8125 344.554688 L 342.335938 344.390625 L 342.863281 344.308594 L 343.386719 344.339844 L 343.910156 344.507812 L 344.433594 344.832031 L 344.957031 345.332031 L 345.484375 346.015625 L 346.007812 346.886719 L 346.53125 347.933594 L 347.054688 349.148438 L 347.582031 350.511719 L 348.105469 351.992188 L 348.628906 353.558594 L 349.152344 355.171875 L 349.675781 356.792969 L 350.203125 358.371094 L 350.726562 359.863281 L 351.25 361.222656 L 351.773438 362.410156 L 352.300781 363.378906 L 352.824219 364.097656 L 353.347656 364.535156 L 353.871094 364.675781 L 354.394531 364.496094 L 354.921875 363.996094 L 355.445312 363.179688 L 355.96875 362.054688 L 356.492188 360.648438 L 357.019531 358.984375 L 357.542969 357.101562 L 358.066406 355.042969 L 358.589844 352.851562 L 359.113281 350.578125 L 359.640625 348.28125 L 360.164062 346.007812 L 360.6875 343.8125 L 361.210938 341.742188 L 361.738281 339.84375 L 362.261719 338.152344 L 362.785156 336.707031 L 363.308594 335.527344 L 363.832031 334.632812 L 364.359375 334.03125 L 364.882812 333.71875 L 365.40625 333.6875 L 365.929688 333.921875 L 366.457031 334.394531 L 366.980469 335.074219 L 367.503906 335.917969 L 368.027344 336.890625 L 368.550781 337.945312 L 369.078125 339.03125 L 369.601562 340.101562 L 370.125 341.113281 L 370.648438 342.027344 L 371.175781 342.796875 L 371.699219 343.394531 L 372.222656 343.789062 L 372.746094 343.960938 L 373.269531 343.902344 L 373.796875 343.605469 L 374.320312 343.074219 L 374.84375 342.316406 L 375.367188 341.355469 L 375.894531 340.214844 L 376.417969 338.925781 L 376.941406 337.523438 L 377.464844 336.046875 L 377.988281 334.535156 L 378.515625 333.035156 L 379.039062 331.582031 L 379.5625 330.222656 L 380.085938 328.992188 L 380.613281 327.921875 L 381.136719 327.039062 L 381.660156 326.367188 L 382.183594 325.921875 L 382.710938 325.710938 L 383.234375 325.734375 L 383.757812 325.988281 L 384.28125 326.457031 L 384.804688 327.125 L 385.332031 327.960938 L 385.855469 328.9375 L 386.378906 330.019531 L 386.902344 331.171875 L 387.429688 332.351562 L 387.953125 333.519531 L 388.476562 334.636719 L 389 335.667969 L 389.523438 336.574219 L 390.050781 337.324219 L 390.574219 337.890625 L 391.097656 338.257812 L 391.621094 338.40625 L 392.148438 338.328125 L 392.671875 338.023438 L 393.195312 337.492188 L 393.71875 336.746094 L 394.242188 335.800781 L 394.769531 334.683594 L 395.292969 333.414062 L 395.816406 332.027344 L 396.339844 330.550781 L 396.867188 329.027344 L 397.390625 327.484375 L 397.914062 325.960938 L 398.4375 324.492188 L 398.960938 323.109375 L 399.488281 321.835938 L 400.011719 320.707031 L 400.535156 319.730469 L 401.058594 318.933594 L 401.585938 318.3125 L 402.109375 317.882812 L 402.632812 317.636719 L 403.15625 317.566406 L 403.679688 317.65625 L 404.207031 317.894531 L 404.730469 318.253906 L 405.253906 318.714844 L 405.777344 319.242188 L 406.304688 319.804688 L 406.828125 320.378906 L 407.351562 320.921875 L 407.875 321.414062 L 408.398438 321.816406 L 408.925781 322.109375 L 409.449219 322.265625 L 409.972656 322.265625 L 410.496094 322.09375 L 411.023438 321.738281 L 411.546875 321.195312 L 412.070312 320.464844 L 412.59375 319.550781 L 413.117188 318.457031 L 413.644531 317.207031 L 414.167969 315.8125 L 414.691406 314.296875 L 415.214844 312.683594 L 415.742188 311 L 416.265625 309.273438 L 416.789062 307.53125 L 417.3125 305.804688 L 417.835938 304.117188 L 418.363281 302.5 L 418.886719 300.96875 L 419.410156 299.550781 L 419.933594 298.257812 L 420.460938 297.101562 L 420.984375 296.09375 L 421.507812 295.234375 L 422.03125 294.527344 L 422.554688 293.960938 L 423.082031 293.53125 L 423.605469 293.222656 L 424.128906 293.019531 L 424.652344 292.902344 L 425.179688 292.847656 L 425.703125 292.832031 L 426.226562 292.835938 L 426.75 292.832031 L 427.277344 292.796875 L 427.800781 292.710938 L 428.324219 292.550781 L 428.847656 292.304688 L 429.371094 291.957031 L 429.898438 291.492188 L 430.421875 290.910156 L 430.945312 290.203125 L 431.46875 289.378906 L 431.996094 288.441406 L 432.519531 287.394531 L 433.042969 286.257812 L 433.566406 285.042969 L 434.089844 283.773438 L 434.617188 282.464844 L 435.140625 281.140625 L 435.664062 279.824219 L 436.1875 278.539062 L 436.714844 277.300781 L 437.238281 276.136719 L 437.761719 275.0625 L 438.285156 274.089844 L 438.808594 273.238281 L 439.335938 272.511719 L 439.859375 271.917969 L 440.382812 271.453125 L 440.90625 271.121094 L 441.433594 270.910156 L 441.957031 270.816406 L 442.480469 270.820312 L 443.003906 270.910156 L 443.527344 271.070312 L 444.054688 271.273438 L 444.578125 271.503906 L 445.101562 271.742188 L 445.625 271.96875 L 446.152344 272.160156 L 446.675781 272.300781 L 447.199219 272.378906 L 447.722656 272.378906 L 448.246094 272.292969 L 448.773438 272.117188 L 449.296875 271.851562 L 449.820312 271.492188 L 450.34375 271.050781 L 450.871094 270.535156 L 451.394531 269.953125 L 451.917969 269.324219 L 452.441406 268.664062 L 452.964844 267.984375 L 453.492188 267.3125 L 454.015625 266.660156 L 454.539062 266.042969 L 455.0625 265.480469 L 455.589844 264.984375 L 456.113281 264.566406 L 456.636719 264.230469 L 457.160156 263.984375 L 457.683594 263.820312 L 458.210938 263.738281 L 458.734375 263.730469 L 459.257812 263.78125 L 459.78125 263.875 L 460.308594 263.996094 L 460.832031 264.117188 L 461.355469 264.222656 L 461.878906 264.28125 L 462.402344 264.277344 L 462.929688 264.183594 L 463.453125 263.980469 L 463.976562 263.648438 L 464.5 263.171875 L 465.027344 262.542969 L 465.550781 261.75 L 466.074219 260.800781 L 466.597656 259.695312 L 467.121094 258.441406 L 467.648438 257.058594 L 468.171875 255.5625 L 468.695312 253.980469 L 469.21875 252.339844 L 469.746094 250.675781 L 470.269531 249.019531 L 470.792969 247.40625 L 471.316406 245.871094 L 471.84375 244.453125 L 472.367188 243.183594 L 472.890625 242.085938 L 473.414062 241.191406 L 473.9375 240.519531 L 474.464844 240.082031 L 474.988281 239.886719 L 475.511719 239.9375 L 476.035156 240.226562 L 476.5625 240.738281 L 477.085938 241.453125 L 477.609375 242.347656 L 478.132812 243.390625 L 478.65625 244.539062 L 479.183594 245.757812 L 479.707031 247.003906 L 480.230469 248.234375 L 480.753906 249.398438 L 481.28125 250.460938 L 481.804688 251.375 L 482.328125 252.109375 L 482.851562 252.632812 L 483.375 252.914062 L 483.902344 252.945312 L 484.425781 252.710938 L 484.949219 252.207031 L 485.472656 251.4375 L 486 250.421875 L 486.523438 249.175781 L 487.046875 247.726562 L 487.570312 246.109375 L 488.09375 244.363281 L 488.621094 242.53125 L 489.144531 240.652344 L 489.667969 238.777344 L 490.191406 236.953125 L 490.71875 235.214844 L 491.242188 233.609375 L 491.765625 232.171875 L 492.289062 230.925781 L 492.8125 229.898438 L 493.339844 229.101562 L 493.863281 228.546875 L 494.386719 228.230469 L 494.910156 228.144531 L 495.4375 228.269531 L 495.960938 228.578125 L 496.484375 229.046875 L 497.007812 229.632812 L 497.53125 230.296875 L 498.058594 230.992188 L 498.582031 231.675781 L 499.105469 232.296875 L 499.628906 232.820312 L 500.15625 233.195312 L 500.679688 233.390625 L 501.203125 233.371094 L 501.726562 233.113281 L 502.25 232.597656 L 502.777344 231.820312 L 503.300781 230.777344 L 503.824219 229.480469 L 504.347656 227.941406 L 504.875 226.183594 L 505.398438 224.242188 L 505.921875 222.15625 L 506.445312 219.96875 L 506.96875 217.722656 L 507.496094 215.472656 L 508.019531 213.265625 L 508.542969 211.152344 L 509.066406 209.179688 L 509.59375 207.390625 L 510.117188 205.828125 L 510.640625 204.523438 L 511.164062 203.5 L 511.6875 202.777344 L 512.214844 202.367188 L 512.738281 202.273438 L 513.261719 202.484375 L 513.785156 202.992188 L 514.3125 203.769531 L 514.835938 204.789062 L 515.359375 206.019531 L 515.882812 207.417969 L 516.410156 208.949219 L 516.933594 210.5625 L 517.457031 212.222656 L 517.980469 213.878906 L 518.503906 215.492188 L 519.03125 217.03125 L 519.554688 218.453125 L 520.078125 219.738281 L 520.601562 220.859375 L 521.128906 221.804688 L 521.652344 222.566406 L 522.175781 223.136719 L 522.699219 223.523438 L 523.222656 223.730469 L 523.75 223.78125 L 524.273438 223.691406 L 524.796875 223.480469 L 525.320312 223.175781 L 525.847656 222.800781 L 526.371094 222.386719 L 526.894531 221.953125 L 527.417969 221.527344 L 527.941406 221.125 L 528.46875 220.769531 L 528.992188 220.46875 L 529.515625 220.230469 L 530.039062 220.066406 L 530.566406 219.972656 L 531.089844 219.941406 L 531.613281 219.964844 L 532.136719 220.035156 L 532.660156 220.136719 L 533.1875 220.253906 L 533.710938 220.367188 L 534.234375 220.460938 L 534.757812 220.523438 L 535.285156 220.535156 L 535.808594 220.488281 L 536.332031 220.371094 L 536.855469 220.1875 L 537.378906 219.925781 L 537.90625 219.597656 L 538.429688 219.207031 L 538.953125 218.765625 L 539.476562 218.289062 L 540.003906 217.796875 L 540.527344 217.308594 L 541.050781 216.839844 L 541.574219 216.414062 L 542.097656 216.050781 L 542.625 215.769531 L 543.148438 215.582031 L 543.671875 215.5 L 544.195312 215.53125 L 544.722656 215.671875 L 545.246094 215.917969 L 545.769531 216.257812 L 546.292969 216.679688 L 546.816406 217.160156 L 547.34375 217.667969 L 547.867188 218.171875 L 548.390625 218.644531 L 548.914062 219.039062 L 549.441406 219.324219 L 549.964844 219.464844 L 550.488281 219.417969 L 551.011719 219.164062 L 551.535156 218.667969 L 552.0625 217.914062 L 552.585938 216.886719 L 553.109375 215.589844 L 553.632812 214.019531 L 554.160156 212.199219 L 554.683594 210.144531 L 555.207031 207.898438 L 555.730469 205.496094 L 556.257812 202.996094 L 556.78125 200.445312 L 557.304688 197.917969 L 557.828125 195.46875 L 558.351562 193.175781 L 558.878906 191.097656 L 559.402344 189.308594 L 559.925781 187.859375 L 560.449219 186.8125 L 560.976562 186.210938 L 561.5 186.085938 L 562.023438 186.464844 L 562.546875 187.359375 L 563.070312 188.765625 L 563.597656 190.667969 L 564.121094 193.039062 L 564.644531 195.828125 L 565.167969 198.984375 L 565.695312 202.441406 L 566.21875 206.121094 L 566.742188 209.9375 L 567.265625 213.800781 L 567.789062 217.617188 L 568.316406 221.296875 L 568.839844 224.742188 L 569.363281 227.871094 L 569.886719 230.601562 L 570.414062 232.859375 L 570.9375 234.589844 L 571.460938 235.742188 L 571.984375 236.285156 L 572.507812 236.195312 L 573.035156 235.472656 L 573.558594 234.117188 L 574.082031 232.144531 L 574.605469 229.558594 L 575.132812 226.339844 L 575.65625 222.3125 "/>
<path fill-rule="nonzero" fill="rgb(100%, 100%, 100%)" fill-opacity="1" stroke-width="1" stroke-linecap="butt" stroke-linejoin="miter" stroke="rgb(0%, 0%, 0%)" stroke-opacity="1" stroke-miterlimit="2" d="M 49 100 L 112 100 L 112 22 L 49 22 Z M 49 100 "/>
<path fill="none" stroke-width="1" stroke-linecap="butt" stroke-linejoin="miter" stroke="rgb(0%, 0%, 0%)" stroke-opacity="1" stroke-miterlimit="1.154701" d="M 51.34375 396.5 L 51.34375 401.5 "/>
<path fill="none" stroke-width="1" stroke-linecap="butt" stroke-linejoin="miter" stroke="rgb(0%, 0%, 0%)" stroke-opacity="1" stroke-miterlimit="1.154701" d="M 313.5 396.5 L 313.5 401.5 "/>
<path fill="none" stroke-width="1" stroke-linecap="butt" stroke-linejoin="miter" stroke="rgb(0%, 0%, 0%)" stroke-opacity="1" stroke-miterlimit="1.154701" d="M 575.65625 396.5 L 575.65625 401.5 "/>
<path fill="none" stroke-width="1" stroke-linecap="butt" stroke-linejoin="miter" stroke="rgb(0%, 0%, 0%)" stroke-opacity="1" stroke-miterlimit="1.154701" d="M 42.5 324.953125 L 37.5 324.953125 "/>
<path fill="none" stroke-width="1" stroke-linecap="butt" stroke-linejoin="miter" stroke="rgb(0%, 0%, 0%)" stroke-opacity="1" stroke-miterlimit="1.154701" d="M 42.5 216.214844 L 37.5 216.214844 "/>
<path fill="none" stroke-width="1" stroke-linecap="butt" stroke-linejoin="miter" stroke="rgb(0%, 0%, 0%)" stroke-opacity="1" stroke-miterlimit="1.154701" d="M 42.5 107.476562 L 37.5 107.476562 "/>
<path fill="none" stroke-width="1.5" stroke-linecap="butt" stroke-linejoin="miter" stroke="rgb(0%, 44.705883%, 69.803923%)" stroke-opacity="1" stroke-miterlimit="2" d="M 55.074219 38 L 75.074219 38 "/>
<path fill="none" stroke-width="0.5" stroke-linecap="butt" stroke-linejoin="miter" stroke="rgb(90.196079%, 62.352943%, 0%)" stroke-opacity="1" stroke-miterlimit="2" d="M 55.074219 61 L 75.074219 61 "/>
<path fill="none" stroke-width="1.5" stroke-linecap="butt" stroke-linejoin="miter" stroke="rgb(0%, 61.960787%, 45.09804%)" stroke-opacity="1" stroke-miterlimit="2" d="M 55.074219 84 L 75.074219 84 "/>
<g fill="rgb(0%, 0%, 0%)" fill-opacity="1">
<use xlink:href="#glyph-8-0-e8ed3286" x="80.075203" y="42.284004"/>
</g>
<g fill="rgb(0%, 0%, 0%)" fill-opacity="1">
<use xlink:href="#glyph-9-0-e8ed3286" x="80.075203" y="64.4272"/>
</g>
<g fill="rgb(0%, 0%, 0%)" fill-opacity="1">
<use xlink:href="#glyph-10-0-e8ed3286" x="86.789597" y="67.227196"/>
</g>
<g fill="rgb(0%, 0%, 0%)" fill-opacity="1">
<use xlink:href="#glyph-10-1-e8ed3286" x="90.989594" y="67.227196"/>
</g>
<g fill="rgb(0%, 0%, 0%)" fill-opacity="1">
<use xlink:href="#glyph-10-2-e8ed3286" x="93.324799" y="67.227196"/>
</g>
<g fill="rgb(0%, 0%, 0%)" fill-opacity="1">
<use xlink:href="#glyph-10-3-e8ed3286" x="97.524796" y="67.227196"/>
</g>
<g fill="rgb(0%, 0%, 0%)" fill-opacity="1">
<use xlink:href="#glyph-11-0-e8ed3286" x="101.7248" y="67.227196"/>
</g>
<g fill="rgb(0%, 0%, 0%)" fill-opacity="1">
<use xlink:href="#glyph-8-0-e8ed3286" x="80.075203" y="87.427208"/>
</g>
<g fill="rgb(0%, 0%, 0%)" fill-opacity="1">
<use xlink:href="#glyph-12-0-e8ed3286" x="86.806404" y="90.227203"/>
</g>
<g fill="rgb(0%, 0%, 0%)" fill-opacity="1">
<use xlink:href="#glyph-12-1-e8ed3286" x="91.006401" y="90.227203"/>
</g>
<path fill="none" stroke-width="1" stroke-linecap="butt" stroke-linejoin="miter" stroke="rgb(0%, 0%, 0%)" stroke-opacity="1" stroke-miterlimit="1.154701" d="M 42.5 396 L 584.5 396 "/>
<path fill="none" stroke-width="1" stroke-linecap="butt" stroke-linejoin="miter" stroke="rgb(0%, 0%, 0%)" stroke-opacity="1" stroke-miterlimit="1.154701" d="M 43 396.5 L 43 15.5 "/>
<path fill="none" stroke-width="1" stroke-linecap="butt" stroke-linejoin="miter" stroke="rgb(0%, 0%, 0%)" stroke-opacity="1" stroke-miterlimit="1.154701" d="M 42.5 16 L 584.5 16 "/>
<path fill="none" stroke-width="1" stroke-linecap="butt" stroke-linejoin="miter" stroke="rgb(0%, 0%, 0%)" stroke-opacity="1" stroke-miterlimit="1.154701" d="M 584 396.5 L 584 15.5 "/>
</svg>
