<?xml version="1.0" standalone="no"?>
<!DOCTYPE svg PUBLIC "-//W3C//DTD SVG 20010904//EN"
 "http://www.w3.org/TR/2001/REC-SVG-20010904/DTD/svg10.dtd">
<svg version="1.0" xmlns="http://www.w3.org/2000/svg"
 width="184.000000pt" height="110.000000pt" viewBox="0 0 184.000000 110.000000"
 preserveAspectRatio="xMidYMid meet">
<metadata>
Created by potrace 1.16, written by Peter Selinger 2001-2019
</metadata>
<g transform="translate(0.000000,110.000000) scale(0.100000,-0.100000)"
fill="#000000" stroke="none">
<path d="M0 560 l0 -530 920 0 920 0 0 530 0 530 -920 0 -920 0 0 -530z m1820
90 l0 -430 -815 0 -815 0 0 430 0 430 815 0 815 0 0 -430z"/>
<path d="M1330 890 l0 -160 225 0 225 0 0 160 0 160 -225 0 -225 0 0 -160z
m440 0 l0 -140 -215 0 -215 0 0 140 0 140 215 0 215 0 0 -140z"/>
<path d="M1611 794 c0 -11 3 -14 6 -6 3 7 2 16 -1 19 -3 4 -6 -2 -5 -13z"/>
<path d="M952 834 c-24 -20 -74 -66 -111 -103 -37 -36 -92 -86 -122 -111 -30
-24 -55 -48 -57 -52 -2 -4 -19 -15 -38 -24 -19 -9 -34 -20 -34 -25 0 -5 -7 -9
-15 -9 -9 0 -29 -7 -45 -15 -99 -51 -259 11 -305 118 -8 18 -14 27 -15 20 0
-25 42 -92 73 -116 18 -13 56 -32 85 -41 120 -40 242 16 432 197 183 175 191
182 200 167 8 -12 10 -10 10 8 0 30 -8 28 -58 -14z"/>
<path d="M1012 770 c0 -14 2 -19 5 -12 2 6 2 18 0 25 -3 6 -5 1 -5 -13z"/>
<path d="M1040 663 c0 -3 13 -30 30 -59 40 -71 109 -140 162 -162 54 -23 128
-36 128 -22 0 5 -13 10 -28 10 -16 0 -51 8 -78 17 -59 20 -157 115 -186 181
-17 39 -28 52 -28 35z"/>
<path d="M1769 536 c-2 -2 -18 -6 -34 -9 -17 -2 -86 -23 -153 -46 -68 -23
-143 -44 -168 -48 -24 -3 -44 -10 -44 -15 0 -4 12 -6 28 -2 89 20 148 37 237
68 55 20 115 36 133 36 17 0 32 5 32 10 0 10 -22 14 -31 6z"/>
</g>
</svg>
